<?xml version="1.0" encoding="utf-8"?>
<!-- Generator: Adobe Illustrator 24.0.1, SVG Export Plug-In . SVG Version: 6.00 Build 0)  -->
<svg version="1.1" id="Calque_1" xmlns="http://www.w3.org/2000/svg" xmlns:xlink="http://www.w3.org/1999/xlink" x="0px" y="0px"
	 viewBox="0 0 214 74" style="enable-background:new 0 0 214 74;" xml:space="preserve">
<style type="text/css">
	.st0{fill:#131212;stroke:#FFFFFF;stroke-miterlimit:10;}
	.st1{fill:#FFFFFF;stroke:#FFFFFF;stroke-miterlimit:10;}
	.st2{fill:#FFFFFF;filter:url(#Adobe_OpacityMaskFilter);}
	.st3{mask:url(#path-1-outside-1_1089_2750_1_);fill:#FFFFFF;stroke:#FFFFFF;stroke-width:0.8449;}
	.st4{fill:#FFFFFF;filter:url(#Adobe_OpacityMaskFilter_1_);}
	.st5{mask:url(#path-1-outside-1_1089_2750_2_);fill:none;stroke:#FFFFFF;stroke-width:0.8449;}
	.st6{fill:#FFFFFF;filter:url(#Adobe_OpacityMaskFilter_2_);}
	.st7{mask:url(#path-1-outside-1_1089_2750_3_);fill:none;stroke:#FFFFFF;stroke-width:0.8449;}
	.st8{fill:#FFFFFF;filter:url(#Adobe_OpacityMaskFilter_3_);}
	.st9{mask:url(#path-1-outside-1_1089_2750_4_);fill:#FFFFFF;stroke:#FFFFFF;stroke-width:0.8449;}
	.st10{fill:#FFFFFF;filter:url(#Adobe_OpacityMaskFilter_4_);}
	.st11{mask:url(#path-1-outside-1_1089_2750_5_);fill:none;stroke:#FFFFFF;stroke-width:0.8449;}
	.st12{fill:#FFFFFF;filter:url(#Adobe_OpacityMaskFilter_5_);}
	.st13{mask:url(#path-1-outside-1_1089_2750_6_);fill:none;stroke:#FFFFFF;stroke-width:0.8449;}
	.st14{fill:#FFFFFF;}
</style>
<path class="st0" d="M57.2,31.4c0.7-0.6,1.5-1.1,2.5-1.8c1.1-0.7,2.2-1.3,3.4-1.9c1.2-0.7,2.5-1.3,3.8-1.9c1.3-0.6,2.6-1.2,3.8-1.7
	c1.2-0.5,2.3-1,3.3-1.3c1-0.4,1.8-0.6,2.4-0.8h-0.9c-2.7-0.2-4.8-0.6-6.1-1.2C68,20,67.2,19.1,66.9,18c-0.2-0.8,0-1.8,0.7-2.8
	c0.7-1.1,1.7-2.2,3-3.3c1.3-1.1,2.9-2.3,4.7-3.4c1.8-1.1,3.7-2.2,5.7-3.2c2-1,4.1-1.8,6.1-2.5c2.1-0.7,4-1.3,5.8-1.6
	c1.8-0.3,3.5-0.3,5-0.1c1.5,0.2,2.7,0.8,3.5,1.7c0.7,0.7,0.7,1.6,0.3,2.8c-0.5,1.1-1.5,2.4-3,3.7c-1.5,1.3-3.6,2.5-6.2,3.7
	c-2.6,1.2-5.6,2.2-9.1,3c-0.1,0-0.2,0-0.2,0c0,0-0.1-0.1-0.1-0.3c-0.1-0.1-0.1-0.2,0-0.3c0.1-0.1,0.3-0.2,0.4-0.2
	c3.6-0.8,6.5-1.8,8.9-3c2.4-1.2,4.3-2.4,5.7-3.5c1.4-1.2,2.2-2.3,2.6-3.3c0.4-1,0.5-1.7,0.1-2.2c-0.6-0.7-1.6-1.2-2.9-1.4
	c-1.3-0.2-2.8-0.1-4.5,0.2c-1.7,0.3-3.5,0.7-5.5,1.4C85.9,4.1,84,4.8,82,5.7c-1.9,0.9-3.8,1.8-5.5,2.9c-1.8,1-3.3,2.1-4.6,3.2
	c-1.3,1.1-2.4,2.1-3.1,3.2c-0.7,1-1.1,2-0.9,2.9c0.1,0.5,0.4,0.9,0.8,1.3c0.4,0.4,1.1,0.8,2,1.1s2.1,0.5,3.6,0.7
	c1.5,0.1,3.2,0.2,5.3,0.1c0.3,0,0.4,0.1,0.5,0.3c0,0.2-0.1,0.3-0.5,0.3c-1.5,0.2-3.4,0.7-5.5,1.6c-2.2,0.8-4.3,1.8-6.5,2.8
	c-2.1,1-4.1,2.1-5.9,3.2c-1.8,1-3.1,1.9-3.9,2.4c-0.7,0.5-1.3,1-1.7,1.6c-0.4,0.5-0.7,0.9-0.8,1.4c-0.1,0.4,0,0.8,0.3,1.2
	c0.3,0.3,0.8,0.5,1.6,0.6c1.1,0.1,2.4,0,4.2-0.3c1.8-0.3,3.5-0.8,5.2-1.4c1.5-0.5,3.3-1.1,5.3-1.9c2.1-0.8,4.1-1.6,6.1-2.4
	c2-0.8,3.8-1.6,5.3-2.2c1.6-0.7,2.7-1.1,3.2-1.4c0.1,0,0.3,0,0.4-0.1c0.2,0,0.3,0,0.4,0.1c0,0.3-0.1,0.5-0.3,0.6
	c-0.6,0.3-1.7,0.9-3.4,1.6c-1.6,0.7-3.5,1.5-5.5,2.3c-2,0.8-4.1,1.6-6.1,2.4c-2.1,0.8-3.9,1.4-5.3,1.9c-2.8,1-5.1,1.5-7.1,1.7
	c-1.9,0.1-3.3,0-4.2-0.4c-0.9-0.4-1.3-1.1-1-2.1C54.7,33.7,55.6,32.6,57.2,31.4z"/>
<path class="st0" d="M87.5,28.3l0.4-0.6c0.1-0.2,0.2-0.4,0.3-0.5c0.1-0.2,0.2-0.4,0.3-0.6v-0.1l-0.1,0.1L88,26.8
	c-0.4,0.2-0.7,0.4-1.1,0.6c-0.4,0.2-0.7,0.3-0.9,0.4c-0.3,0.1-0.5,0-0.7-0.2c-0.2-0.1-0.1-0.3,0.3-0.4c0.3-0.1,0.6-0.2,0.9-0.4
	c0.4-0.1,0.7-0.3,0.9-0.5l0.7-0.4l0.4-0.3v-0.1c0.1-0.2,0.2-0.3,0.4-0.3c0.2,0,0.3,0.1,0.4,0.3l0.1,0.2c0.1,0.5,0,1-0.3,1.6
	c0.4-0.2,0.9-0.5,1.7-0.9c0.7-0.4,1.4-0.8,2.2-1.1c0.8-0.3,1.5-0.6,2.2-0.8c0.7-0.2,1.4-0.2,1.8,0c0.3,0.1,0.4,0.3,0.4,0.6
	s-0.1,0.5-0.2,0.8c-0.1,0.3-0.2,0.5-0.4,0.8c-0.2,0.3-0.3,0.5-0.3,0.6v0.1c0.4-0.2,0.9-0.5,1.5-0.8c0.6-0.3,1.3-0.6,1.9-0.8
	c0.7-0.3,1.3-0.4,1.9-0.6c0.7-0.1,1.2-0.1,1.7,0.1c0.4,0.1,0.5,0.3,0.4,0.7c0,0.1,0,0.1,0,0.2c0,0.1,0,0.1-0.1,0.2
	c-0.2,0.3-0.6,0.7-1,1.1c-0.4,0.4-0.8,0.8-1.1,1.1c-0.2,0.3-0.2,0.6,0,0.7c0.3,0.1,1,0.1,2.2-0.2c3.1-0.6,5.8-1.4,7.9-2.6
	c0.1-0.1,0.2-0.1,0.3-0.1c0.1,0,0.2,0.1,0.2,0.2c0.2,0.1,0.2,0.3,0,0.4c-1.3,0.7-2.7,1.2-4.2,1.7c-1.5,0.5-2.9,0.8-4.3,1.1
	c-1.2,0.2-2.1,0.2-2.6,0.1c-0.5-0.1-0.7-0.4-0.8-0.6c0-0.3,0.1-0.6,0.3-1c0.3-0.4,0.6-0.8,0.9-1.2c0.4-0.4,0.6-0.7,0.9-0.9
	c0.3-0.3,0.4-0.4,0.3-0.4c-0.3-0.1-0.8-0.1-1.5,0.1c-0.7,0.2-1.4,0.5-2.2,0.8c-0.8,0.3-1.6,0.7-2.4,1.2c-0.8,0.4-1.4,0.9-1.8,1.2
	c-0.1,0.1-0.3,0.2-0.4,0.4c-0.1,0.1-0.2,0.2-0.3,0.3h-0.1c-0.2,0-0.4-0.1-0.5-0.2c-0.1-0.1-0.1-0.3,0-0.4c0.6-0.6,1.1-1.2,1.5-1.8
	c0.4-0.6,0.7-1.1,0.9-1.4c0.2-0.4,0.3-0.7,0.3-0.9c0-0.2-0.2-0.3-0.5-0.2c-0.5,0.1-1.1,0.3-1.8,0.6c-0.7,0.3-1.5,0.7-2.3,1.1
	c-0.8,0.4-1.6,0.8-2.3,1.3c-0.7,0.4-1.4,0.9-1.8,1.2c-0.1,0.1-0.3,0.2-0.4,0.4c-0.1,0.1-0.2,0.2-0.3,0.3h-0.1
	c-0.2,0-0.4-0.1-0.5-0.2c-0.1-0.1-0.1-0.3,0-0.4L87.5,28.3z"/>
<path class="st0" d="M110.8,29.7c-0.3-0.3-0.3-0.6-0.1-1.1c0.2-0.4,0.4-0.8,0.7-1.1c-0.4,0.2-0.7,0.4-0.9,0.4
	c-0.2,0-0.4,0.1-0.7,0.2c-0.2,0.1-0.4,0.1-0.5-0.1c-0.1-0.2-0.1-0.3,0.1-0.4c0.5-0.2,0.9-0.4,1.2-0.5c0.3-0.1,0.6-0.3,0.8-0.4
	c0.2-0.1,0.5-0.3,0.7-0.4c0.3-0.1,0.6-0.3,1.1-0.6c0.3-0.1,0.5-0.1,0.6,0.2c0.2,0.2,0.2,0.4-0.1,0.5c-0.5,0.3-0.8,0.6-1.1,0.8
	c-0.2,0.3-0.4,0.5-0.7,0.8c-0.4,0.5-0.5,0.8-0.3,0.9c0.1,0.1,0.4,0.2,0.7,0.2c0.4,0,0.7,0,1.2-0.1c0.4-0.1,0.8-0.2,1.1-0.3
	c0.9-0.2,1.8-0.5,2.9-0.9c1.1-0.4,2.1-0.8,3.2-1.3c0.1-0.1,0.2-0.1,0.3-0.1c0.1,0,0.2,0,0.3,0.1c0.1,0.2,0,0.4-0.3,0.6
	c-0.4,0.2-1.2,0.6-2.2,1c-1,0.4-2,0.8-3.1,1.1c-1.1,0.3-2.1,0.6-3.1,0.7C111.7,30.2,111.1,30.1,110.8,29.7z M113.9,24
	c-0.1-0.1-0.1-0.2-0.1-0.3c0-0.1,0.1-0.2,0.3-0.2c0.3-0.2,0.5-0.4,0.8-0.7c0.3-0.3,0.6-0.6,0.8-0.9c0.1-0.3,0.3-0.3,0.5-0.1
	c0.4,0.1,0.4,0.3,0.3,0.4c-0.6,0.9-1.2,1.4-1.8,1.8C114.3,24.3,114.1,24.3,113.9,24z"/>
<path class="st0" d="M121.1,30.3c-0.4-0.1-0.8-0.2-1.1-0.4c-0.3-0.3-0.5-0.6-0.5-1c0-0.2,0-0.5,0.1-0.7c0.1-0.3,0.3-0.5,0.4-0.8
	l0.3-0.2v-0.1c-0.2-0.2-0.2-0.3,0.1-0.4l0.5-0.2l0.4-0.6c0.9-1,2.2-2.2,3.7-3.6c1.6-1.4,3.2-2.7,5-3.9c1.7-1.3,3.4-2.4,5.1-3.3
	c1.7-1,3.2-1.7,4.4-2h0.4c0.4,0,0.7,0.1,0.7,0.4c-0.1,0.4-0.5,0.9-1.1,1.6c-0.7,0.6-1.6,1.4-2.7,2.2c-0.6,0.4-1.4,1-2.6,1.8
	c-1.1,0.8-2.4,1.6-3.8,2.5c-1.3,0.9-2.7,1.8-4.1,2.6c-1.4,0.9-2.6,1.6-3.6,2.1l-1.2,0.6l-0.1,0.2c-0.3,0.3-0.5,0.7-0.7,1
	c-0.2,0.3-0.3,0.6-0.3,0.9c0,0.4,0.3,0.7,0.9,0.8c0.6,0.1,1.4,0.1,2.3,0.1c1-0.1,2-0.3,3.1-0.6c1.1-0.3,2.2-0.5,3.3-0.8
	c1.1-0.3,2-0.7,2.8-1c0.8-0.3,1.4-0.6,1.8-0.8c0.3-0.2,0.5-0.2,0.7,0c0.2,0.2,0.1,0.4-0.1,0.6c-0.5,0.4-1.4,0.8-2.6,1.3
	c-1.2,0.4-2.5,0.9-4,1.2c-1.4,0.4-2.8,0.6-4.2,0.8C123,30.5,121.9,30.5,121.1,30.3z M136,16.6c0.7-0.4,1.2-0.8,1.6-1.2
	c0.4-0.4,0.8-0.7,1.2-1.1l0.4-0.3l0.3-0.3l-0.4,0.1c-1.5,0.6-3.1,1.4-4.7,2.4c-1.6,1-3.1,2-4.6,3.1s-2.8,2.1-4,3.2
	c-1.2,1-2.2,1.9-2.9,2.6l0.9-0.6c0.8-0.4,1.8-1,3-1.8c1.2-0.8,2.4-1.6,3.6-2.3c1.2-0.8,2.4-1.5,3.4-2.2
	C134.8,17.4,135.5,16.9,136,16.6z"/>
<path class="st1" d="M133.5,29.7c-0.3-0.3-0.3-0.6-0.1-1.1c0.2-0.4,0.4-0.8,0.7-1.1c-0.4,0.2-0.7,0.4-0.9,0.4
	c-0.2,0-0.4,0.1-0.7,0.2c-0.2,0.1-0.4,0.1-0.5-0.1c-0.1-0.2-0.1-0.3,0.1-0.4c0.5-0.2,0.9-0.4,1.2-0.5c0.3-0.1,0.6-0.3,0.8-0.4
	c0.2-0.1,0.5-0.3,0.7-0.4c0.3-0.1,0.6-0.3,1.1-0.6c0.3-0.1,0.5-0.1,0.6,0.2c0.2,0.2,0.2,0.4-0.1,0.5c-0.5,0.3-0.8,0.6-1.1,0.8
	c-0.2,0.3-0.4,0.5-0.7,0.8c-0.4,0.5-0.5,0.8-0.3,0.9c0.1,0.1,0.4,0.2,0.7,0.2c0.4,0,0.7,0,1.2-0.1c0.4-0.1,0.8-0.2,1.1-0.3
	c0.9-0.2,1.8-0.5,2.9-0.9c1.1-0.4,2.1-0.8,3.2-1.3c0.1-0.1,0.2-0.1,0.3-0.1c0.1,0,0.2,0,0.3,0.1c0.1,0.2,0,0.4-0.3,0.6
	c-0.4,0.2-1.2,0.6-2.2,1c-1,0.4-2,0.8-3.1,1.1c-1.1,0.3-2.1,0.6-3.1,0.7C134.4,30.2,133.8,30.1,133.5,29.7z M136.7,24
	c-0.1-0.1-0.1-0.2-0.1-0.3c0-0.1,0.1-0.2,0.3-0.2c0.3-0.2,0.5-0.4,0.8-0.7c0.3-0.3,0.6-0.6,0.8-0.9c0.1-0.3,0.3-0.3,0.5-0.1
	c0.4,0.1,0.4,0.3,0.3,0.4c-0.6,0.9-1.2,1.4-1.8,1.8C137,24.3,136.8,24.3,136.7,24z"/>
<path class="st0" d="M141.2,30.5c-0.5-0.3-0.7-0.6-0.6-1.2c0.1-0.6,0.5-1.1,1-1.6c0.5-0.5,1.2-1,2-1.3c0.8-0.4,1.6-0.6,2.4-0.6
	c0.5,0,1,0.1,1.4,0.3c0.4,0.2,0.7,0.4,0.9,0.6c0.1,0.1,0,0.2-0.1,0.3c-0.1,0.1-0.3,0.1-0.4,0c-0.2-0.1-0.4-0.2-0.7-0.3
	c-0.2-0.1-0.5-0.2-1.1-0.2c-0.5,0-1.1,0.1-1.7,0.4c-0.6,0.3-1.2,0.6-1.7,1.1c-0.4,0.4-0.8,0.7-1,1.1c-0.2,0.3-0.1,0.6,0.1,0.7
	c0.4,0.1,0.9,0,1.6-0.2c0.7-0.3,1.3-0.6,2-0.9c0.7-0.4,1.5-0.8,2.1-1.2c0.7-0.4,1.3-0.8,1.8-1.1c0.4-0.3,0.7-0.3,0.9-0.1
	c0.2,0.2,0.2,0.4-0.1,0.6c-0.6,0.3-1,0.8-1.2,1.3c-0.2,0.5-0.1,0.8,0.2,0.9c0.3,0.1,0.8,0.1,1.5-0.2c0.7-0.3,1.4-0.6,2.2-0.9
	c0.7-0.3,1.5-0.7,2.1-1c0.7-0.3,1.1-0.6,1.3-0.7c0.3-0.1,0.5-0.1,0.6,0.2c0.2,0.2,0.2,0.4-0.1,0.5c-0.3,0.1-0.8,0.4-1.5,0.8
	c-0.7,0.3-1.4,0.7-2.2,1c-0.7,0.3-1.5,0.6-2.3,0.8c-0.7,0.2-1.4,0.3-1.8,0.2c-0.5-0.1-0.8-0.4-0.9-0.7c-0.1-0.4,0-0.7,0.2-1.1
	c-0.5,0.3-1.1,0.6-1.7,1c-0.7,0.3-1.3,0.6-2,0.9c-0.7,0.3-1.3,0.5-1.9,0.6C141.9,30.7,141.4,30.6,141.2,30.5z"/>
<defs>
	<filter id="Adobe_OpacityMaskFilter" filterUnits="userSpaceOnUse" x="54" y="0.6" width="48.4" height="37.1">
		<feColorMatrix  type="matrix" values="1 0 0 0 0  0 1 0 0 0  0 0 1 0 0  0 0 0 1 0"/>
	</filter>
</defs>
<mask maskUnits="userSpaceOnUse" x="54" y="0.6" width="48.4" height="37.1" id="path-1-outside-1_1089_2750_1_">
	<rect x="53.4" class="st2" width="104" height="38"/>
	<path d="M57.2,31.4c0.7-0.6,1.5-1.1,2.5-1.8c1.1-0.7,2.2-1.3,3.4-1.9c1.2-0.7,2.5-1.3,3.8-1.9c1.3-0.6,2.6-1.2,3.8-1.7
		c1.2-0.5,2.3-1,3.3-1.3c1-0.4,1.8-0.6,2.4-0.8h-0.9c-2.7-0.2-4.8-0.6-6.1-1.2C68,20,67.2,19.1,66.9,18c-0.2-0.8,0-1.8,0.7-2.8
		c0.7-1.1,1.7-2.2,3-3.3c1.3-1.1,2.9-2.3,4.7-3.4c1.8-1.1,3.7-2.2,5.7-3.2c2-1,4.1-1.8,6.1-2.5c2.1-0.7,4-1.3,5.8-1.6
		c1.8-0.3,3.5-0.3,5-0.1c1.5,0.2,2.7,0.8,3.5,1.7c0.7,0.7,0.7,1.6,0.3,2.8c-0.5,1.1-1.5,2.4-3,3.7c-1.5,1.3-3.6,2.5-6.2,3.7
		c-2.6,1.2-5.6,2.2-9.1,3c-0.1,0-0.2,0-0.2,0c0,0-0.1-0.1-0.1-0.3c-0.1-0.1-0.1-0.2,0-0.3c0.1-0.1,0.3-0.2,0.4-0.2
		c3.6-0.8,6.5-1.8,8.9-3c2.4-1.2,4.3-2.4,5.7-3.5c1.4-1.2,2.2-2.3,2.6-3.3c0.4-1,0.5-1.7,0.1-2.2c-0.6-0.7-1.6-1.2-2.9-1.4
		c-1.3-0.2-2.8-0.1-4.5,0.2c-1.7,0.3-3.5,0.7-5.5,1.4C85.9,4.1,84,4.8,82,5.7c-1.9,0.9-3.8,1.8-5.5,2.9c-1.8,1-3.3,2.1-4.6,3.2
		c-1.3,1.1-2.4,2.1-3.1,3.2c-0.7,1-1.1,2-0.9,2.9c0.1,0.5,0.4,0.9,0.8,1.3c0.4,0.4,1.1,0.8,2,1.1s2.1,0.5,3.6,0.7
		c1.5,0.1,3.2,0.2,5.3,0.1c0.3,0,0.4,0.1,0.5,0.3c0,0.2-0.1,0.3-0.5,0.3c-1.5,0.2-3.4,0.7-5.5,1.6c-2.2,0.8-4.3,1.8-6.5,2.8
		c-2.1,1-4.1,2.1-5.9,3.2c-1.8,1-3.1,1.9-3.9,2.4c-0.7,0.5-1.3,1-1.7,1.6c-0.4,0.5-0.7,0.9-0.8,1.4c-0.1,0.4,0,0.8,0.3,1.2
		c0.3,0.3,0.8,0.5,1.6,0.6c1.1,0.1,2.4,0,4.2-0.3c1.8-0.3,3.5-0.8,5.2-1.4c1.5-0.5,3.3-1.1,5.3-1.9c2.1-0.8,4.1-1.6,6.1-2.4
		c2-0.8,3.8-1.6,5.3-2.2c1.6-0.7,2.7-1.1,3.2-1.4c0.1,0,0.3,0,0.4-0.1c0.2,0,0.3,0,0.4,0.1c0,0.3-0.1,0.5-0.3,0.6
		c-0.6,0.3-1.7,0.9-3.4,1.6c-1.6,0.7-3.5,1.5-5.5,2.3c-2,0.8-4.1,1.6-6.1,2.4c-2.1,0.8-3.9,1.4-5.3,1.9c-2.8,1-5.1,1.5-7.1,1.7
		c-1.9,0.1-3.3,0-4.2-0.4c-0.9-0.4-1.3-1.1-1-2.1C54.7,33.7,55.6,32.6,57.2,31.4z"/>
	<path d="M87.5,28.3l0.4-0.6c0.1-0.2,0.2-0.4,0.3-0.5c0.1-0.2,0.2-0.4,0.3-0.6v-0.1l-0.1,0.1L88,26.8c-0.4,0.2-0.7,0.4-1.1,0.6
		c-0.4,0.2-0.7,0.3-0.9,0.4c-0.3,0.1-0.5,0-0.7-0.2c-0.2-0.1-0.1-0.3,0.3-0.4c0.3-0.1,0.6-0.2,0.9-0.4c0.4-0.1,0.7-0.3,0.9-0.5
		l0.7-0.4l0.4-0.3v-0.1c0.1-0.2,0.2-0.3,0.4-0.3c0.2,0,0.3,0.1,0.4,0.3l0.1,0.2c0.1,0.5,0,1-0.3,1.6c0.4-0.2,0.9-0.5,1.7-0.9
		c0.7-0.4,1.4-0.8,2.2-1.1c0.8-0.3,1.5-0.6,2.2-0.8c0.7-0.2,1.4-0.2,1.8,0c0.3,0.1,0.4,0.3,0.4,0.6s-0.1,0.5-0.2,0.8
		c-0.1,0.3-0.2,0.5-0.4,0.8c-0.2,0.3-0.3,0.5-0.3,0.6v0.1c0.4-0.2,0.9-0.5,1.5-0.8c0.6-0.3,1.3-0.6,1.9-0.8c0.7-0.3,1.3-0.4,1.9-0.6
		c0.7-0.1,1.2-0.1,1.7,0.1c0.4,0.1,0.5,0.3,0.4,0.7c0,0.1,0,0.1,0,0.2c0,0.1,0,0.1-0.1,0.2c-0.2,0.3-0.6,0.7-1,1.1
		c-0.4,0.4-0.8,0.8-1.1,1.1c-0.2,0.3-0.2,0.6,0,0.7c0.3,0.1,1,0.1,2.2-0.2c3.1-0.6,5.8-1.4,7.9-2.6c0.1-0.1,0.2-0.1,0.3-0.1
		c0.1,0,0.2,0.1,0.2,0.2c0.2,0.1,0.2,0.3,0,0.4c-1.3,0.7-2.7,1.2-4.2,1.7c-1.5,0.5-2.9,0.8-4.3,1.1c-1.2,0.2-2.1,0.2-2.6,0.1
		c-0.5-0.1-0.7-0.4-0.8-0.6c0-0.3,0.1-0.6,0.3-1c0.3-0.4,0.6-0.8,0.9-1.2c0.4-0.4,0.6-0.7,0.9-0.9c0.3-0.3,0.4-0.4,0.3-0.4
		c-0.3-0.1-0.8-0.1-1.5,0.1c-0.7,0.2-1.4,0.5-2.2,0.8c-0.8,0.3-1.6,0.7-2.4,1.2c-0.8,0.4-1.4,0.9-1.8,1.2c-0.1,0.1-0.3,0.2-0.4,0.4
		c-0.1,0.1-0.2,0.2-0.3,0.3h-0.1c-0.2,0-0.4-0.1-0.5-0.2c-0.1-0.1-0.1-0.3,0-0.4c0.6-0.6,1.1-1.2,1.5-1.8c0.4-0.6,0.7-1.1,0.9-1.4
		c0.2-0.4,0.3-0.7,0.3-0.9c0-0.2-0.2-0.3-0.5-0.2c-0.5,0.1-1.1,0.3-1.8,0.6c-0.7,0.3-1.5,0.7-2.3,1.1c-0.8,0.4-1.6,0.8-2.3,1.3
		c-0.7,0.4-1.4,0.9-1.8,1.2c-0.1,0.1-0.3,0.2-0.4,0.4c-0.1,0.1-0.2,0.2-0.3,0.3h-0.1c-0.2,0-0.4-0.1-0.5-0.2c-0.1-0.1-0.1-0.3,0-0.4
		L87.5,28.3z"/>
	<path d="M110.8,29.7c-0.3-0.3-0.3-0.6-0.1-1.1c0.2-0.4,0.4-0.8,0.7-1.1c-0.4,0.2-0.7,0.4-0.9,0.4c-0.2,0-0.4,0.1-0.7,0.2
		c-0.2,0.1-0.4,0.1-0.5-0.1c-0.1-0.2-0.1-0.3,0.1-0.4c0.5-0.2,0.9-0.4,1.2-0.5c0.3-0.1,0.6-0.3,0.8-0.4c0.2-0.1,0.5-0.3,0.7-0.4
		c0.3-0.1,0.6-0.3,1.1-0.6c0.3-0.1,0.5-0.1,0.6,0.2c0.2,0.2,0.2,0.4-0.1,0.5c-0.5,0.3-0.8,0.6-1.1,0.8c-0.2,0.3-0.4,0.5-0.7,0.8
		c-0.4,0.5-0.5,0.8-0.3,0.9c0.1,0.1,0.4,0.2,0.7,0.2c0.4,0,0.7,0,1.2-0.1c0.4-0.1,0.8-0.2,1.1-0.3c0.9-0.2,1.8-0.5,2.9-0.9
		c1.1-0.4,2.1-0.8,3.2-1.3c0.1-0.1,0.2-0.1,0.3-0.1c0.1,0,0.2,0,0.3,0.1c0.1,0.2,0,0.4-0.3,0.6c-0.4,0.2-1.2,0.6-2.2,1
		c-1,0.4-2,0.8-3.1,1.1c-1.1,0.3-2.1,0.6-3.1,0.7C111.7,30.2,111.1,30.1,110.8,29.7z M113.9,24c-0.1-0.1-0.1-0.2-0.1-0.3
		c0-0.1,0.1-0.2,0.3-0.2c0.3-0.2,0.5-0.4,0.8-0.7c0.3-0.3,0.6-0.6,0.8-0.9c0.1-0.3,0.3-0.3,0.5-0.1c0.4,0.1,0.4,0.3,0.3,0.4
		c-0.6,0.9-1.2,1.4-1.8,1.8C114.3,24.3,114.1,24.3,113.9,24z"/>
	<path d="M121.1,30.3c-0.4-0.1-0.8-0.2-1.1-0.4c-0.3-0.3-0.5-0.6-0.5-1c0-0.2,0-0.5,0.1-0.7c0.1-0.3,0.3-0.5,0.4-0.8l0.3-0.2v-0.1
		c-0.2-0.2-0.2-0.3,0.1-0.4l0.5-0.2l0.4-0.6c0.9-1,2.2-2.2,3.7-3.6c1.6-1.4,3.2-2.7,5-3.9c1.7-1.3,3.4-2.4,5.1-3.3
		c1.7-1,3.2-1.7,4.4-2h0.4c0.4,0,0.7,0.1,0.7,0.4c-0.1,0.4-0.5,0.9-1.1,1.6c-0.7,0.6-1.6,1.4-2.7,2.2c-0.6,0.4-1.4,1-2.6,1.8
		c-1.1,0.8-2.4,1.6-3.8,2.5c-1.3,0.9-2.7,1.8-4.1,2.6c-1.4,0.9-2.6,1.6-3.6,2.1l-1.2,0.6l-0.1,0.2c-0.3,0.3-0.5,0.7-0.7,1
		c-0.2,0.3-0.3,0.6-0.3,0.9c0,0.4,0.3,0.7,0.9,0.8c0.6,0.1,1.4,0.1,2.3,0.1c1-0.1,2-0.3,3.1-0.6c1.1-0.3,2.2-0.5,3.3-0.8
		c1.1-0.3,2-0.7,2.8-1c0.8-0.3,1.4-0.6,1.8-0.8c0.3-0.2,0.5-0.2,0.7,0c0.2,0.2,0.1,0.4-0.1,0.6c-0.5,0.4-1.4,0.8-2.6,1.3
		c-1.2,0.4-2.5,0.9-4,1.2c-1.4,0.4-2.8,0.6-4.2,0.8C123,30.5,121.9,30.5,121.1,30.3z M136,16.6c0.7-0.4,1.2-0.8,1.6-1.2
		c0.4-0.4,0.8-0.7,1.2-1.1l0.4-0.3l0.3-0.3l-0.4,0.1c-1.5,0.6-3.1,1.4-4.7,2.4c-1.6,1-3.1,2-4.6,3.1s-2.8,2.1-4,3.2
		c-1.2,1-2.2,1.9-2.9,2.6l0.9-0.6c0.8-0.4,1.8-1,3-1.8c1.2-0.8,2.4-1.6,3.6-2.3c1.2-0.8,2.4-1.5,3.4-2.2
		C134.8,17.4,135.5,16.9,136,16.6z"/>
	<path d="M133.5,29.7c-0.3-0.3-0.3-0.6-0.1-1.1c0.2-0.4,0.4-0.8,0.7-1.1c-0.4,0.2-0.7,0.4-0.9,0.4c-0.2,0-0.4,0.1-0.7,0.2
		c-0.2,0.1-0.4,0.1-0.5-0.1c-0.1-0.2-0.1-0.3,0.1-0.4c0.5-0.2,0.9-0.4,1.2-0.5c0.3-0.1,0.6-0.3,0.8-0.4c0.2-0.1,0.5-0.3,0.7-0.4
		c0.3-0.1,0.6-0.3,1.1-0.6c0.3-0.1,0.5-0.1,0.6,0.2c0.2,0.2,0.2,0.4-0.1,0.5c-0.5,0.3-0.8,0.6-1.1,0.8c-0.2,0.3-0.4,0.5-0.7,0.8
		c-0.4,0.5-0.5,0.8-0.3,0.9c0.1,0.1,0.4,0.2,0.7,0.2c0.4,0,0.7,0,1.2-0.1c0.4-0.1,0.8-0.2,1.1-0.3c0.9-0.2,1.8-0.5,2.9-0.9
		c1.1-0.4,2.1-0.8,3.2-1.3c0.1-0.1,0.2-0.1,0.3-0.1c0.1,0,0.2,0,0.3,0.1c0.1,0.2,0,0.4-0.3,0.6c-0.4,0.2-1.2,0.6-2.2,1
		c-1,0.4-2,0.8-3.1,1.1c-1.1,0.3-2.1,0.6-3.1,0.7C134.4,30.2,133.8,30.1,133.5,29.7z M136.7,24c-0.1-0.1-0.1-0.2-0.1-0.3
		c0-0.1,0.1-0.2,0.3-0.2c0.3-0.2,0.5-0.4,0.8-0.7c0.3-0.3,0.6-0.6,0.8-0.9c0.1-0.3,0.3-0.3,0.5-0.1c0.4,0.1,0.4,0.3,0.3,0.4
		c-0.6,0.9-1.2,1.4-1.8,1.8C137,24.3,136.8,24.3,136.7,24z"/>
	<path d="M141.2,30.5c-0.5-0.3-0.7-0.6-0.6-1.2c0.1-0.6,0.5-1.1,1-1.6c0.5-0.5,1.2-1,2-1.3c0.8-0.4,1.6-0.6,2.4-0.6
		c0.5,0,1,0.1,1.4,0.3c0.4,0.2,0.7,0.4,0.9,0.6c0.1,0.1,0,0.2-0.1,0.3c-0.1,0.1-0.3,0.1-0.4,0c-0.2-0.1-0.4-0.2-0.7-0.3
		c-0.2-0.1-0.5-0.2-1.1-0.2c-0.5,0-1.1,0.1-1.7,0.4c-0.6,0.3-1.2,0.6-1.7,1.1c-0.4,0.4-0.8,0.7-1,1.1c-0.2,0.3-0.1,0.6,0.1,0.7
		c0.4,0.1,0.9,0,1.6-0.2c0.7-0.3,1.3-0.6,2-0.9c0.7-0.4,1.5-0.8,2.1-1.2c0.7-0.4,1.3-0.8,1.8-1.1c0.4-0.3,0.7-0.3,0.9-0.1
		c0.2,0.2,0.2,0.4-0.1,0.6c-0.6,0.3-1,0.8-1.2,1.3c-0.2,0.5-0.1,0.8,0.2,0.9c0.3,0.1,0.8,0.1,1.5-0.2c0.7-0.3,1.4-0.6,2.2-0.9
		c0.7-0.3,1.5-0.7,2.1-1c0.7-0.3,1.1-0.6,1.3-0.7c0.3-0.1,0.5-0.1,0.6,0.2c0.2,0.2,0.2,0.4-0.1,0.5c-0.3,0.1-0.8,0.4-1.5,0.8
		c-0.7,0.3-1.4,0.7-2.2,1c-0.7,0.3-1.5,0.6-2.3,0.8c-0.7,0.2-1.4,0.3-1.8,0.2c-0.5-0.1-0.8-0.4-0.9-0.7c-0.1-0.4,0-0.7,0.2-1.1
		c-0.5,0.3-1.1,0.6-1.7,1c-0.7,0.3-1.3,0.6-2,0.9c-0.7,0.3-1.3,0.5-1.9,0.6C141.9,30.7,141.4,30.6,141.2,30.5z"/>
</mask>
<path class="st3" d="M57.2,31.4c0.7-0.6,1.5-1.1,2.5-1.8c1.1-0.7,2.2-1.3,3.4-1.9c1.2-0.7,2.5-1.3,3.8-1.9c1.3-0.6,2.6-1.2,3.8-1.7
	c1.2-0.5,2.3-1,3.3-1.3c1-0.4,1.8-0.6,2.4-0.8h-0.9c-2.7-0.2-4.8-0.6-6.1-1.2C68,20,67.2,19.1,66.9,18c-0.2-0.8,0-1.8,0.7-2.8
	c0.7-1.1,1.7-2.2,3-3.3c1.3-1.1,2.9-2.3,4.7-3.4c1.8-1.1,3.7-2.2,5.7-3.2c2-1,4.1-1.8,6.1-2.5c2.1-0.7,4-1.3,5.8-1.6
	c1.8-0.3,3.5-0.3,5-0.1c1.5,0.2,2.7,0.8,3.5,1.7c0.7,0.7,0.7,1.6,0.3,2.8c-0.5,1.1-1.5,2.4-3,3.7c-1.5,1.3-3.6,2.5-6.2,3.7
	c-2.6,1.2-5.6,2.2-9.1,3c-0.1,0-0.2,0-0.2,0c0,0-0.1-0.1-0.1-0.3c-0.1-0.1-0.1-0.2,0-0.3c0.1-0.1,0.3-0.2,0.4-0.2
	c3.6-0.8,6.5-1.8,8.9-3c2.4-1.2,4.3-2.4,5.7-3.5c1.4-1.2,2.2-2.3,2.6-3.3c0.4-1,0.5-1.7,0.1-2.2c-0.6-0.7-1.6-1.2-2.9-1.4
	c-1.3-0.2-2.8-0.1-4.5,0.2c-1.7,0.3-3.5,0.7-5.5,1.4C85.9,4.1,84,4.8,82,5.7c-1.9,0.9-3.8,1.8-5.5,2.9c-1.8,1-3.3,2.1-4.6,3.2
	c-1.3,1.1-2.4,2.1-3.1,3.2c-0.7,1-1.1,2-0.9,2.9c0.1,0.5,0.4,0.9,0.8,1.3c0.4,0.4,1.1,0.8,2,1.1s2.1,0.5,3.6,0.7
	c1.5,0.1,3.2,0.2,5.3,0.1c0.3,0,0.4,0.1,0.5,0.3c0,0.2-0.1,0.3-0.5,0.3c-1.5,0.2-3.4,0.7-5.5,1.6c-2.2,0.8-4.3,1.8-6.5,2.8
	c-2.1,1-4.1,2.1-5.9,3.2c-1.8,1-3.1,1.9-3.9,2.4c-0.7,0.5-1.3,1-1.7,1.6c-0.4,0.5-0.7,0.9-0.8,1.4c-0.1,0.4,0,0.8,0.3,1.2
	c0.3,0.3,0.8,0.5,1.6,0.6c1.1,0.1,2.4,0,4.2-0.3c1.8-0.3,3.5-0.8,5.2-1.4c1.5-0.5,3.3-1.1,5.3-1.9c2.1-0.8,4.1-1.6,6.1-2.4
	c2-0.8,3.8-1.6,5.3-2.2c1.6-0.7,2.7-1.1,3.2-1.4c0.1,0,0.3,0,0.4-0.1c0.2,0,0.3,0,0.4,0.1c0,0.3-0.1,0.5-0.3,0.6
	c-0.6,0.3-1.7,0.9-3.4,1.6c-1.6,0.7-3.5,1.5-5.5,2.3c-2,0.8-4.1,1.6-6.1,2.4c-2.1,0.8-3.9,1.4-5.3,1.9c-2.8,1-5.1,1.5-7.1,1.7
	c-1.9,0.1-3.3,0-4.2-0.4c-0.9-0.4-1.3-1.1-1-2.1C54.7,33.7,55.6,32.6,57.2,31.4z"/>
<defs>
	<filter id="Adobe_OpacityMaskFilter_1_" filterUnits="userSpaceOnUse" x="84.9" y="23.8" width="28.1" height="6.6">
		<feColorMatrix  type="matrix" values="1 0 0 0 0  0 1 0 0 0  0 0 1 0 0  0 0 0 1 0"/>
	</filter>
</defs>
<mask maskUnits="userSpaceOnUse" x="84.9" y="23.8" width="28.1" height="6.6" id="path-1-outside-1_1089_2750_2_">
	<rect x="53.4" class="st4" width="104" height="38"/>
	<path d="M57.2,31.4c0.7-0.6,1.5-1.1,2.5-1.8c1.1-0.7,2.2-1.3,3.4-1.9c1.2-0.7,2.5-1.3,3.8-1.9c1.3-0.6,2.6-1.2,3.8-1.7
		c1.2-0.5,2.3-1,3.3-1.3c1-0.4,1.8-0.6,2.4-0.8h-0.9c-2.7-0.2-4.8-0.6-6.1-1.2C68,20,67.2,19.1,66.9,18c-0.2-0.8,0-1.8,0.7-2.8
		c0.7-1.1,1.7-2.2,3-3.3c1.3-1.1,2.9-2.3,4.7-3.4c1.8-1.1,3.7-2.2,5.7-3.2c2-1,4.1-1.8,6.1-2.5c2.1-0.7,4-1.3,5.8-1.6
		c1.8-0.3,3.5-0.3,5-0.1c1.5,0.2,2.7,0.8,3.5,1.7c0.7,0.7,0.7,1.6,0.3,2.8c-0.5,1.1-1.5,2.4-3,3.7c-1.5,1.3-3.6,2.5-6.2,3.7
		c-2.6,1.2-5.6,2.2-9.1,3c-0.1,0-0.2,0-0.2,0c0,0-0.1-0.1-0.1-0.3c-0.1-0.1-0.1-0.2,0-0.3c0.1-0.1,0.3-0.2,0.4-0.2
		c3.6-0.8,6.5-1.8,8.9-3c2.4-1.2,4.3-2.4,5.7-3.5c1.4-1.2,2.2-2.3,2.6-3.3c0.4-1,0.5-1.7,0.1-2.2c-0.6-0.7-1.6-1.2-2.9-1.4
		c-1.3-0.2-2.8-0.1-4.5,0.2c-1.7,0.3-3.5,0.7-5.5,1.4C85.9,4.1,84,4.8,82,5.7c-1.9,0.9-3.8,1.8-5.5,2.9c-1.8,1-3.3,2.1-4.6,3.2
		c-1.3,1.1-2.4,2.1-3.1,3.2c-0.7,1-1.1,2-0.9,2.9c0.1,0.5,0.4,0.9,0.8,1.3c0.4,0.4,1.1,0.8,2,1.1s2.1,0.5,3.6,0.7
		c1.5,0.1,3.2,0.2,5.3,0.1c0.3,0,0.4,0.1,0.5,0.3c0,0.2-0.1,0.3-0.5,0.3c-1.5,0.2-3.4,0.7-5.5,1.6c-2.2,0.8-4.3,1.8-6.5,2.8
		c-2.1,1-4.1,2.1-5.9,3.2c-1.8,1-3.1,1.9-3.9,2.4c-0.7,0.5-1.3,1-1.7,1.6c-0.4,0.5-0.7,0.9-0.8,1.4c-0.1,0.4,0,0.8,0.3,1.2
		c0.3,0.3,0.8,0.5,1.6,0.6c1.1,0.1,2.4,0,4.2-0.3c1.8-0.3,3.5-0.8,5.2-1.4c1.5-0.5,3.3-1.1,5.3-1.9c2.1-0.8,4.1-1.6,6.1-2.4
		c2-0.8,3.8-1.6,5.3-2.2c1.6-0.7,2.7-1.1,3.2-1.4c0.1,0,0.3,0,0.4-0.1c0.2,0,0.3,0,0.4,0.1c0,0.3-0.1,0.5-0.3,0.6
		c-0.6,0.3-1.7,0.9-3.4,1.6c-1.6,0.7-3.5,1.5-5.5,2.3c-2,0.8-4.1,1.6-6.1,2.4c-2.1,0.8-3.9,1.4-5.3,1.9c-2.8,1-5.1,1.5-7.1,1.7
		c-1.9,0.1-3.3,0-4.2-0.4c-0.9-0.4-1.3-1.1-1-2.1C54.7,33.7,55.6,32.6,57.2,31.4z"/>
	<path d="M87.5,28.3l0.4-0.6c0.1-0.2,0.2-0.4,0.3-0.5c0.1-0.2,0.2-0.4,0.3-0.6v-0.1l-0.1,0.1L88,26.8c-0.4,0.2-0.7,0.4-1.1,0.6
		c-0.4,0.2-0.7,0.3-0.9,0.4c-0.3,0.1-0.5,0-0.7-0.2c-0.2-0.1-0.1-0.3,0.3-0.4c0.3-0.1,0.6-0.2,0.9-0.4c0.4-0.1,0.7-0.3,0.9-0.5
		l0.7-0.4l0.4-0.3v-0.1c0.1-0.2,0.2-0.3,0.4-0.3c0.2,0,0.3,0.1,0.4,0.3l0.1,0.2c0.1,0.5,0,1-0.3,1.6c0.4-0.2,0.9-0.5,1.7-0.9
		c0.7-0.4,1.4-0.8,2.2-1.1c0.8-0.3,1.5-0.6,2.2-0.8c0.7-0.2,1.4-0.2,1.8,0c0.3,0.1,0.4,0.3,0.4,0.6s-0.1,0.5-0.2,0.8
		c-0.1,0.3-0.2,0.5-0.4,0.8c-0.2,0.3-0.3,0.5-0.3,0.6v0.1c0.4-0.2,0.9-0.5,1.5-0.8c0.6-0.3,1.3-0.6,1.9-0.8c0.7-0.3,1.3-0.4,1.9-0.6
		c0.7-0.1,1.2-0.1,1.7,0.1c0.4,0.1,0.5,0.3,0.4,0.7c0,0.1,0,0.1,0,0.2c0,0.1,0,0.1-0.1,0.2c-0.2,0.3-0.6,0.7-1,1.1
		c-0.4,0.4-0.8,0.8-1.1,1.1c-0.2,0.3-0.2,0.6,0,0.7c0.3,0.1,1,0.1,2.2-0.2c3.1-0.6,5.8-1.4,7.9-2.6c0.1-0.1,0.2-0.1,0.3-0.1
		c0.1,0,0.2,0.1,0.2,0.2c0.2,0.1,0.2,0.3,0,0.4c-1.3,0.7-2.7,1.2-4.2,1.7c-1.5,0.5-2.9,0.8-4.3,1.1c-1.2,0.2-2.1,0.2-2.6,0.1
		c-0.5-0.1-0.7-0.4-0.8-0.6c0-0.3,0.1-0.6,0.3-1c0.3-0.4,0.6-0.8,0.9-1.2c0.4-0.4,0.6-0.7,0.9-0.9c0.3-0.3,0.4-0.4,0.3-0.4
		c-0.3-0.1-0.8-0.1-1.5,0.1c-0.7,0.2-1.4,0.5-2.2,0.8c-0.8,0.3-1.6,0.7-2.4,1.2c-0.8,0.4-1.4,0.9-1.8,1.2c-0.1,0.1-0.3,0.2-0.4,0.4
		c-0.1,0.1-0.2,0.2-0.3,0.3h-0.1c-0.2,0-0.4-0.1-0.5-0.2c-0.1-0.1-0.1-0.3,0-0.4c0.6-0.6,1.1-1.2,1.5-1.8c0.4-0.6,0.7-1.1,0.9-1.4
		c0.2-0.4,0.3-0.7,0.3-0.9c0-0.2-0.2-0.3-0.5-0.2c-0.5,0.1-1.1,0.3-1.8,0.6c-0.7,0.3-1.5,0.7-2.3,1.1c-0.8,0.4-1.6,0.8-2.3,1.3
		c-0.7,0.4-1.4,0.9-1.8,1.2c-0.1,0.1-0.3,0.2-0.4,0.4c-0.1,0.1-0.2,0.2-0.3,0.3h-0.1c-0.2,0-0.4-0.1-0.5-0.2c-0.1-0.1-0.1-0.3,0-0.4
		L87.5,28.3z"/>
	<path d="M110.8,29.7c-0.3-0.3-0.3-0.6-0.1-1.1c0.2-0.4,0.4-0.8,0.7-1.1c-0.4,0.2-0.7,0.4-0.9,0.4c-0.2,0-0.4,0.1-0.7,0.2
		c-0.2,0.1-0.4,0.1-0.5-0.1c-0.1-0.2-0.1-0.3,0.1-0.4c0.5-0.2,0.9-0.4,1.2-0.5c0.3-0.1,0.6-0.3,0.8-0.4c0.2-0.1,0.5-0.3,0.7-0.4
		c0.3-0.1,0.6-0.3,1.1-0.6c0.3-0.1,0.5-0.1,0.6,0.2c0.2,0.2,0.2,0.4-0.1,0.5c-0.5,0.3-0.8,0.6-1.1,0.8c-0.2,0.3-0.4,0.5-0.7,0.8
		c-0.4,0.5-0.5,0.8-0.3,0.9c0.1,0.1,0.4,0.2,0.7,0.2c0.4,0,0.7,0,1.2-0.1c0.4-0.1,0.8-0.2,1.1-0.3c0.9-0.2,1.8-0.5,2.9-0.9
		c1.1-0.4,2.1-0.8,3.2-1.3c0.1-0.1,0.2-0.1,0.3-0.1c0.1,0,0.2,0,0.3,0.1c0.1,0.2,0,0.4-0.3,0.6c-0.4,0.2-1.2,0.6-2.2,1
		c-1,0.4-2,0.8-3.1,1.1c-1.1,0.3-2.1,0.6-3.1,0.7C111.7,30.2,111.1,30.1,110.8,29.7z M113.9,24c-0.1-0.1-0.1-0.2-0.1-0.3
		c0-0.1,0.1-0.2,0.3-0.2c0.3-0.2,0.5-0.4,0.8-0.7c0.3-0.3,0.6-0.6,0.8-0.9c0.1-0.3,0.3-0.3,0.5-0.1c0.4,0.1,0.4,0.3,0.3,0.4
		c-0.6,0.9-1.2,1.4-1.8,1.8C114.3,24.3,114.1,24.3,113.9,24z"/>
	<path d="M121.1,30.3c-0.4-0.1-0.8-0.2-1.1-0.4c-0.3-0.3-0.5-0.6-0.5-1c0-0.2,0-0.5,0.1-0.7c0.1-0.3,0.3-0.5,0.4-0.8l0.3-0.2v-0.1
		c-0.2-0.2-0.2-0.3,0.1-0.4l0.5-0.2l0.4-0.6c0.9-1,2.2-2.2,3.7-3.6c1.6-1.4,3.2-2.7,5-3.9c1.7-1.3,3.4-2.4,5.1-3.3
		c1.7-1,3.2-1.7,4.4-2h0.4c0.4,0,0.7,0.1,0.7,0.4c-0.1,0.4-0.5,0.9-1.1,1.6c-0.7,0.6-1.6,1.4-2.7,2.2c-0.6,0.4-1.4,1-2.6,1.8
		c-1.1,0.8-2.4,1.6-3.8,2.5c-1.3,0.9-2.7,1.8-4.1,2.6c-1.4,0.9-2.6,1.6-3.6,2.1l-1.2,0.6l-0.1,0.2c-0.3,0.3-0.5,0.7-0.7,1
		c-0.2,0.3-0.3,0.6-0.3,0.9c0,0.4,0.3,0.7,0.9,0.8c0.6,0.1,1.4,0.1,2.3,0.1c1-0.1,2-0.3,3.1-0.6c1.1-0.3,2.2-0.5,3.3-0.8
		c1.1-0.3,2-0.7,2.8-1c0.8-0.3,1.4-0.6,1.8-0.8c0.3-0.2,0.5-0.2,0.7,0c0.2,0.2,0.1,0.4-0.1,0.6c-0.5,0.4-1.4,0.8-2.6,1.3
		c-1.2,0.4-2.5,0.9-4,1.2c-1.4,0.4-2.8,0.6-4.2,0.8C123,30.5,121.9,30.5,121.1,30.3z M136,16.6c0.7-0.4,1.2-0.8,1.6-1.2
		c0.4-0.4,0.8-0.7,1.2-1.1l0.4-0.3l0.3-0.3l-0.4,0.1c-1.5,0.6-3.1,1.4-4.7,2.4c-1.6,1-3.1,2-4.6,3.1s-2.8,2.1-4,3.2
		c-1.2,1-2.2,1.9-2.9,2.6l0.9-0.6c0.8-0.4,1.8-1,3-1.8c1.2-0.8,2.4-1.6,3.6-2.3c1.2-0.8,2.4-1.5,3.4-2.2
		C134.8,17.4,135.5,16.9,136,16.6z"/>
	<path d="M133.5,29.7c-0.3-0.3-0.3-0.6-0.1-1.1c0.2-0.4,0.4-0.8,0.7-1.1c-0.4,0.2-0.7,0.4-0.9,0.4c-0.2,0-0.4,0.1-0.7,0.2
		c-0.2,0.1-0.4,0.1-0.5-0.1c-0.1-0.2-0.1-0.3,0.1-0.4c0.5-0.2,0.9-0.4,1.2-0.5c0.3-0.1,0.6-0.3,0.8-0.4c0.2-0.1,0.5-0.3,0.7-0.4
		c0.3-0.1,0.6-0.3,1.1-0.6c0.3-0.1,0.5-0.1,0.6,0.2c0.2,0.2,0.2,0.4-0.1,0.5c-0.5,0.3-0.8,0.6-1.1,0.8c-0.2,0.3-0.4,0.5-0.7,0.8
		c-0.4,0.5-0.5,0.8-0.3,0.9c0.1,0.1,0.4,0.2,0.7,0.2c0.4,0,0.7,0,1.2-0.1c0.4-0.1,0.8-0.2,1.1-0.3c0.9-0.2,1.8-0.5,2.9-0.9
		c1.1-0.4,2.1-0.8,3.2-1.3c0.1-0.1,0.2-0.1,0.3-0.1c0.1,0,0.2,0,0.3,0.1c0.1,0.2,0,0.4-0.3,0.6c-0.4,0.2-1.2,0.6-2.2,1
		c-1,0.4-2,0.8-3.1,1.1c-1.1,0.3-2.1,0.6-3.1,0.7C134.4,30.2,133.8,30.1,133.5,29.7z M136.7,24c-0.1-0.1-0.1-0.2-0.1-0.3
		c0-0.1,0.1-0.2,0.3-0.2c0.3-0.2,0.5-0.4,0.8-0.7c0.3-0.3,0.6-0.6,0.8-0.9c0.1-0.3,0.3-0.3,0.5-0.1c0.4,0.1,0.4,0.3,0.3,0.4
		c-0.6,0.9-1.2,1.4-1.8,1.8C137,24.3,136.8,24.3,136.7,24z"/>
	<path d="M141.2,30.5c-0.5-0.3-0.7-0.6-0.6-1.2c0.1-0.6,0.5-1.1,1-1.6c0.5-0.5,1.2-1,2-1.3c0.8-0.4,1.6-0.6,2.4-0.6
		c0.5,0,1,0.1,1.4,0.3c0.4,0.2,0.7,0.4,0.9,0.6c0.1,0.1,0,0.2-0.1,0.3c-0.1,0.1-0.3,0.1-0.4,0c-0.2-0.1-0.4-0.2-0.7-0.3
		c-0.2-0.1-0.5-0.2-1.1-0.2c-0.5,0-1.1,0.1-1.7,0.4c-0.6,0.3-1.2,0.6-1.7,1.1c-0.4,0.4-0.8,0.7-1,1.1c-0.2,0.3-0.1,0.6,0.1,0.7
		c0.4,0.1,0.9,0,1.6-0.2c0.7-0.3,1.3-0.6,2-0.9c0.7-0.4,1.5-0.8,2.1-1.2c0.7-0.4,1.3-0.8,1.8-1.1c0.4-0.3,0.7-0.3,0.9-0.1
		c0.2,0.2,0.2,0.4-0.1,0.6c-0.6,0.3-1,0.8-1.2,1.3c-0.2,0.5-0.1,0.8,0.2,0.9c0.3,0.1,0.8,0.1,1.5-0.2c0.7-0.3,1.4-0.6,2.2-0.9
		c0.7-0.3,1.5-0.7,2.1-1c0.7-0.3,1.1-0.6,1.3-0.7c0.3-0.1,0.5-0.1,0.6,0.2c0.2,0.2,0.2,0.4-0.1,0.5c-0.3,0.1-0.8,0.4-1.5,0.8
		c-0.7,0.3-1.4,0.7-2.2,1c-0.7,0.3-1.5,0.6-2.3,0.8c-0.7,0.2-1.4,0.3-1.8,0.2c-0.5-0.1-0.8-0.4-0.9-0.7c-0.1-0.4,0-0.7,0.2-1.1
		c-0.5,0.3-1.1,0.6-1.7,1c-0.7,0.3-1.3,0.6-2,0.9c-0.7,0.3-1.3,0.5-1.9,0.6C141.9,30.7,141.4,30.6,141.2,30.5z"/>
</mask>
<path class="st5" d="M87.5,28.3l0.4-0.6c0.1-0.2,0.2-0.4,0.3-0.5c0.1-0.2,0.2-0.4,0.3-0.6v-0.1l-0.1,0.1L88,26.8
	c-0.4,0.2-0.7,0.4-1.1,0.6c-0.4,0.2-0.7,0.3-0.9,0.4c-0.3,0.1-0.5,0-0.7-0.2c-0.2-0.1-0.1-0.3,0.3-0.4c0.3-0.1,0.6-0.2,0.9-0.4
	c0.4-0.1,0.7-0.3,0.9-0.5l0.7-0.4l0.4-0.3v-0.1c0.1-0.2,0.2-0.3,0.4-0.3c0.2,0,0.3,0.1,0.4,0.3l0.1,0.2c0.1,0.5,0,1-0.3,1.6
	c0.4-0.2,0.9-0.5,1.7-0.9c0.7-0.4,1.4-0.8,2.2-1.1c0.8-0.3,1.5-0.6,2.2-0.8c0.7-0.2,1.4-0.2,1.8,0c0.3,0.1,0.4,0.3,0.4,0.6
	s-0.1,0.5-0.2,0.8c-0.1,0.3-0.2,0.5-0.4,0.8c-0.2,0.3-0.3,0.5-0.3,0.6v0.1c0.4-0.2,0.9-0.5,1.5-0.8c0.6-0.3,1.3-0.6,1.9-0.8
	c0.7-0.3,1.3-0.4,1.9-0.6c0.7-0.1,1.2-0.1,1.7,0.1c0.4,0.1,0.5,0.3,0.4,0.7c0,0.1,0,0.1,0,0.2c0,0.1,0,0.1-0.1,0.2
	c-0.2,0.3-0.6,0.7-1,1.1c-0.4,0.4-0.8,0.8-1.1,1.1c-0.2,0.3-0.2,0.6,0,0.7c0.3,0.1,1,0.1,2.2-0.2c3.1-0.6,5.8-1.4,7.9-2.6
	c0.1-0.1,0.2-0.1,0.3-0.1c0.1,0,0.2,0.1,0.2,0.2c0.2,0.1,0.2,0.3,0,0.4c-1.3,0.7-2.7,1.2-4.2,1.7c-1.5,0.5-2.9,0.8-4.3,1.1
	c-1.2,0.2-2.1,0.2-2.6,0.1c-0.5-0.1-0.7-0.4-0.8-0.6c0-0.3,0.1-0.6,0.3-1c0.3-0.4,0.6-0.8,0.9-1.2c0.4-0.4,0.6-0.7,0.9-0.9
	c0.3-0.3,0.4-0.4,0.3-0.4c-0.3-0.1-0.8-0.1-1.5,0.1c-0.7,0.2-1.4,0.5-2.2,0.8c-0.8,0.3-1.6,0.7-2.4,1.2c-0.8,0.4-1.4,0.9-1.8,1.2
	c-0.1,0.1-0.3,0.2-0.4,0.4c-0.1,0.1-0.2,0.2-0.3,0.3h-0.1c-0.2,0-0.4-0.1-0.5-0.2c-0.1-0.1-0.1-0.3,0-0.4c0.6-0.6,1.1-1.2,1.5-1.8
	c0.4-0.6,0.7-1.1,0.9-1.4c0.2-0.4,0.3-0.7,0.3-0.9c0-0.2-0.2-0.3-0.5-0.2c-0.5,0.1-1.1,0.3-1.8,0.6c-0.7,0.3-1.5,0.7-2.3,1.1
	c-0.8,0.4-1.6,0.8-2.3,1.3c-0.7,0.4-1.4,0.9-1.8,1.2c-0.1,0.1-0.3,0.2-0.4,0.4c-0.1,0.1-0.2,0.2-0.3,0.3h-0.1
	c-0.2,0-0.4-0.1-0.5-0.2c-0.1-0.1-0.1-0.3,0-0.4L87.5,28.3z"/>
<defs>
	<filter id="Adobe_OpacityMaskFilter_2_" filterUnits="userSpaceOnUse" x="108.7" y="21.4" width="13.1" height="9.2">
		<feColorMatrix  type="matrix" values="1 0 0 0 0  0 1 0 0 0  0 0 1 0 0  0 0 0 1 0"/>
	</filter>
</defs>
<mask maskUnits="userSpaceOnUse" x="108.7" y="21.4" width="13.1" height="9.2" id="path-1-outside-1_1089_2750_3_">
	<rect x="53.4" class="st6" width="104" height="38"/>
	<path d="M57.2,31.4c0.7-0.6,1.5-1.1,2.5-1.8c1.1-0.7,2.2-1.3,3.4-1.9c1.2-0.7,2.5-1.3,3.8-1.9c1.3-0.6,2.6-1.2,3.8-1.7
		c1.2-0.5,2.3-1,3.3-1.3c1-0.4,1.8-0.6,2.4-0.8h-0.9c-2.7-0.2-4.8-0.6-6.1-1.2C68,20,67.2,19.1,66.9,18c-0.2-0.8,0-1.8,0.7-2.8
		c0.7-1.1,1.7-2.2,3-3.3c1.3-1.1,2.9-2.3,4.7-3.4c1.8-1.1,3.7-2.2,5.7-3.2c2-1,4.1-1.8,6.1-2.5c2.1-0.7,4-1.3,5.8-1.6
		c1.8-0.3,3.5-0.3,5-0.1c1.5,0.2,2.7,0.8,3.5,1.7c0.7,0.7,0.7,1.6,0.3,2.8c-0.5,1.1-1.5,2.4-3,3.7c-1.5,1.3-3.6,2.5-6.2,3.7
		c-2.6,1.2-5.6,2.2-9.1,3c-0.1,0-0.2,0-0.2,0c0,0-0.1-0.1-0.1-0.3c-0.1-0.1-0.1-0.2,0-0.3c0.1-0.1,0.3-0.2,0.4-0.2
		c3.6-0.8,6.5-1.8,8.9-3c2.4-1.2,4.3-2.4,5.7-3.5c1.4-1.2,2.2-2.3,2.6-3.3c0.4-1,0.5-1.7,0.1-2.2c-0.6-0.7-1.6-1.2-2.9-1.4
		c-1.3-0.2-2.8-0.1-4.5,0.2c-1.7,0.3-3.5,0.7-5.5,1.4C85.9,4.1,84,4.8,82,5.7c-1.9,0.9-3.8,1.8-5.5,2.9c-1.8,1-3.3,2.1-4.6,3.2
		c-1.3,1.1-2.4,2.1-3.1,3.2c-0.7,1-1.1,2-0.9,2.9c0.1,0.5,0.4,0.9,0.8,1.3c0.4,0.4,1.1,0.8,2,1.1s2.1,0.5,3.6,0.7
		c1.5,0.1,3.2,0.2,5.3,0.1c0.3,0,0.4,0.1,0.5,0.3c0,0.2-0.1,0.3-0.5,0.3c-1.5,0.2-3.4,0.7-5.5,1.6c-2.2,0.8-4.3,1.8-6.5,2.8
		c-2.1,1-4.1,2.1-5.9,3.2c-1.8,1-3.1,1.9-3.9,2.4c-0.7,0.5-1.3,1-1.7,1.6c-0.4,0.5-0.7,0.9-0.8,1.4c-0.1,0.4,0,0.8,0.3,1.2
		c0.3,0.3,0.8,0.5,1.6,0.6c1.1,0.1,2.4,0,4.2-0.3c1.8-0.3,3.5-0.8,5.2-1.4c1.5-0.5,3.3-1.1,5.3-1.9c2.1-0.8,4.1-1.6,6.1-2.4
		c2-0.8,3.8-1.6,5.3-2.2c1.6-0.7,2.7-1.1,3.2-1.4c0.1,0,0.3,0,0.4-0.1c0.2,0,0.3,0,0.4,0.1c0,0.3-0.1,0.5-0.3,0.6
		c-0.6,0.3-1.7,0.9-3.4,1.6c-1.6,0.7-3.5,1.5-5.5,2.3c-2,0.8-4.1,1.6-6.1,2.4c-2.1,0.8-3.9,1.4-5.3,1.9c-2.8,1-5.1,1.5-7.1,1.7
		c-1.9,0.1-3.3,0-4.2-0.4c-0.9-0.4-1.3-1.1-1-2.1C54.7,33.7,55.6,32.6,57.2,31.4z"/>
	<path d="M87.5,28.3l0.4-0.6c0.1-0.2,0.2-0.4,0.3-0.5c0.1-0.2,0.2-0.4,0.3-0.6v-0.1l-0.1,0.1L88,26.8c-0.4,0.2-0.7,0.4-1.1,0.6
		c-0.4,0.2-0.7,0.3-0.9,0.4c-0.3,0.1-0.5,0-0.7-0.2c-0.2-0.1-0.1-0.3,0.3-0.4c0.3-0.1,0.6-0.2,0.9-0.4c0.4-0.1,0.7-0.3,0.9-0.5
		l0.7-0.4l0.4-0.3v-0.1c0.1-0.2,0.2-0.3,0.4-0.3c0.2,0,0.3,0.1,0.4,0.3l0.1,0.2c0.1,0.5,0,1-0.3,1.6c0.4-0.2,0.9-0.5,1.7-0.9
		c0.7-0.4,1.4-0.8,2.2-1.1c0.8-0.3,1.5-0.6,2.2-0.8c0.7-0.2,1.4-0.2,1.8,0c0.3,0.1,0.4,0.3,0.4,0.6s-0.1,0.5-0.2,0.8
		c-0.1,0.3-0.2,0.5-0.4,0.8c-0.2,0.3-0.3,0.5-0.3,0.6v0.1c0.4-0.2,0.9-0.5,1.5-0.8c0.6-0.3,1.3-0.6,1.9-0.8c0.7-0.3,1.3-0.4,1.9-0.6
		c0.7-0.1,1.2-0.1,1.7,0.1c0.4,0.1,0.5,0.3,0.4,0.7c0,0.1,0,0.1,0,0.2c0,0.1,0,0.1-0.1,0.2c-0.2,0.3-0.6,0.7-1,1.1
		c-0.4,0.4-0.8,0.8-1.1,1.1c-0.2,0.3-0.2,0.6,0,0.7c0.3,0.1,1,0.1,2.2-0.2c3.1-0.6,5.8-1.4,7.9-2.6c0.1-0.1,0.2-0.1,0.3-0.1
		c0.1,0,0.2,0.1,0.2,0.2c0.2,0.1,0.2,0.3,0,0.4c-1.3,0.7-2.7,1.2-4.2,1.7c-1.5,0.5-2.9,0.8-4.3,1.1c-1.2,0.2-2.1,0.2-2.6,0.1
		c-0.5-0.1-0.7-0.4-0.8-0.6c0-0.3,0.1-0.6,0.3-1c0.3-0.4,0.6-0.8,0.9-1.2c0.4-0.4,0.6-0.7,0.9-0.9c0.3-0.3,0.4-0.4,0.3-0.4
		c-0.3-0.1-0.8-0.1-1.5,0.1c-0.7,0.2-1.4,0.5-2.2,0.8c-0.8,0.3-1.6,0.7-2.4,1.2c-0.8,0.4-1.4,0.9-1.8,1.2c-0.1,0.1-0.3,0.2-0.4,0.4
		c-0.1,0.1-0.2,0.2-0.3,0.3h-0.1c-0.2,0-0.4-0.1-0.5-0.2c-0.1-0.1-0.1-0.3,0-0.4c0.6-0.6,1.1-1.2,1.5-1.8c0.4-0.6,0.7-1.1,0.9-1.4
		c0.2-0.4,0.3-0.7,0.3-0.9c0-0.2-0.2-0.3-0.5-0.2c-0.5,0.1-1.1,0.3-1.8,0.6c-0.7,0.3-1.5,0.7-2.3,1.1c-0.8,0.4-1.6,0.8-2.3,1.3
		c-0.7,0.4-1.4,0.9-1.8,1.2c-0.1,0.1-0.3,0.2-0.4,0.4c-0.1,0.1-0.2,0.2-0.3,0.3h-0.1c-0.2,0-0.4-0.1-0.5-0.2c-0.1-0.1-0.1-0.3,0-0.4
		L87.5,28.3z"/>
	<path d="M110.8,29.7c-0.3-0.3-0.3-0.6-0.1-1.1c0.2-0.4,0.4-0.8,0.7-1.1c-0.4,0.2-0.7,0.4-0.9,0.4c-0.2,0-0.4,0.1-0.7,0.2
		c-0.2,0.1-0.4,0.1-0.5-0.1c-0.1-0.2-0.1-0.3,0.1-0.4c0.5-0.2,0.9-0.4,1.2-0.5c0.3-0.1,0.6-0.3,0.8-0.4c0.2-0.1,0.5-0.3,0.7-0.4
		c0.3-0.1,0.6-0.3,1.1-0.6c0.3-0.1,0.5-0.1,0.6,0.2c0.2,0.2,0.2,0.4-0.1,0.5c-0.5,0.3-0.8,0.6-1.1,0.8c-0.2,0.3-0.4,0.5-0.7,0.8
		c-0.4,0.5-0.5,0.8-0.3,0.9c0.1,0.1,0.4,0.2,0.7,0.2c0.4,0,0.7,0,1.2-0.1c0.4-0.1,0.8-0.2,1.1-0.3c0.9-0.2,1.8-0.5,2.9-0.9
		c1.1-0.4,2.1-0.8,3.2-1.3c0.1-0.1,0.2-0.1,0.3-0.1c0.1,0,0.2,0,0.3,0.1c0.1,0.2,0,0.4-0.3,0.6c-0.4,0.2-1.2,0.6-2.2,1
		c-1,0.4-2,0.8-3.1,1.1c-1.1,0.3-2.1,0.6-3.1,0.7C111.7,30.2,111.1,30.1,110.8,29.7z M113.9,24c-0.1-0.1-0.1-0.2-0.1-0.3
		c0-0.1,0.1-0.2,0.3-0.2c0.3-0.2,0.5-0.4,0.8-0.7c0.3-0.3,0.6-0.6,0.8-0.9c0.1-0.3,0.3-0.3,0.5-0.1c0.4,0.1,0.4,0.3,0.3,0.4
		c-0.6,0.9-1.2,1.4-1.8,1.8C114.3,24.3,114.1,24.3,113.9,24z"/>
	<path d="M121.1,30.3c-0.4-0.1-0.8-0.2-1.1-0.4c-0.3-0.3-0.5-0.6-0.5-1c0-0.2,0-0.5,0.1-0.7c0.1-0.3,0.3-0.5,0.4-0.8l0.3-0.2v-0.1
		c-0.2-0.2-0.2-0.3,0.1-0.4l0.5-0.2l0.4-0.6c0.9-1,2.2-2.2,3.7-3.6c1.6-1.4,3.2-2.7,5-3.9c1.7-1.3,3.4-2.4,5.1-3.3
		c1.7-1,3.2-1.7,4.4-2h0.4c0.4,0,0.7,0.1,0.7,0.4c-0.1,0.4-0.5,0.9-1.1,1.6c-0.7,0.6-1.6,1.4-2.7,2.2c-0.6,0.4-1.4,1-2.6,1.8
		c-1.1,0.8-2.4,1.6-3.8,2.5c-1.3,0.9-2.7,1.8-4.1,2.6c-1.4,0.9-2.6,1.6-3.6,2.1l-1.2,0.6l-0.1,0.2c-0.3,0.3-0.5,0.7-0.7,1
		c-0.2,0.3-0.3,0.6-0.3,0.9c0,0.4,0.3,0.7,0.9,0.8c0.6,0.1,1.4,0.1,2.3,0.1c1-0.1,2-0.3,3.1-0.6c1.1-0.3,2.2-0.5,3.3-0.8
		c1.1-0.3,2-0.7,2.8-1c0.8-0.3,1.4-0.6,1.8-0.8c0.3-0.2,0.5-0.2,0.7,0c0.2,0.2,0.1,0.4-0.1,0.6c-0.5,0.4-1.4,0.8-2.6,1.3
		c-1.2,0.4-2.5,0.9-4,1.2c-1.4,0.4-2.8,0.6-4.2,0.8C123,30.5,121.9,30.5,121.1,30.3z M136,16.6c0.7-0.4,1.2-0.8,1.6-1.2
		c0.4-0.4,0.8-0.7,1.2-1.1l0.4-0.3l0.3-0.3l-0.4,0.1c-1.5,0.6-3.1,1.4-4.7,2.4c-1.6,1-3.1,2-4.6,3.1s-2.8,2.1-4,3.2
		c-1.2,1-2.2,1.9-2.9,2.6l0.9-0.6c0.8-0.4,1.8-1,3-1.8c1.2-0.8,2.4-1.6,3.6-2.3c1.2-0.8,2.4-1.5,3.4-2.2
		C134.8,17.4,135.5,16.9,136,16.6z"/>
	<path d="M133.5,29.7c-0.3-0.3-0.3-0.6-0.1-1.1c0.2-0.4,0.4-0.8,0.7-1.1c-0.4,0.2-0.7,0.4-0.9,0.4c-0.2,0-0.4,0.1-0.7,0.2
		c-0.2,0.1-0.4,0.1-0.5-0.1c-0.1-0.2-0.1-0.3,0.1-0.4c0.5-0.2,0.9-0.4,1.2-0.5c0.3-0.1,0.6-0.3,0.8-0.4c0.2-0.1,0.5-0.3,0.7-0.4
		c0.3-0.1,0.6-0.3,1.1-0.6c0.3-0.1,0.5-0.1,0.6,0.2c0.2,0.2,0.2,0.4-0.1,0.5c-0.5,0.3-0.8,0.6-1.1,0.8c-0.2,0.3-0.4,0.5-0.7,0.8
		c-0.4,0.5-0.5,0.8-0.3,0.9c0.1,0.1,0.4,0.2,0.7,0.2c0.4,0,0.7,0,1.2-0.1c0.4-0.1,0.8-0.2,1.1-0.3c0.9-0.2,1.8-0.5,2.9-0.9
		c1.1-0.4,2.1-0.8,3.2-1.3c0.1-0.1,0.2-0.1,0.3-0.1c0.1,0,0.2,0,0.3,0.1c0.1,0.2,0,0.4-0.3,0.6c-0.4,0.2-1.2,0.6-2.2,1
		c-1,0.4-2,0.8-3.1,1.1c-1.1,0.3-2.1,0.6-3.1,0.7C134.4,30.2,133.8,30.1,133.5,29.7z M136.7,24c-0.1-0.1-0.1-0.2-0.1-0.3
		c0-0.1,0.1-0.2,0.3-0.2c0.3-0.2,0.5-0.4,0.8-0.7c0.3-0.3,0.6-0.6,0.8-0.9c0.1-0.3,0.3-0.3,0.5-0.1c0.4,0.1,0.4,0.3,0.3,0.4
		c-0.6,0.9-1.2,1.4-1.8,1.8C137,24.3,136.8,24.3,136.7,24z"/>
	<path d="M141.2,30.5c-0.5-0.3-0.7-0.6-0.6-1.2c0.1-0.6,0.5-1.1,1-1.6c0.5-0.5,1.2-1,2-1.3c0.8-0.4,1.6-0.6,2.4-0.6
		c0.5,0,1,0.1,1.4,0.3c0.4,0.2,0.7,0.4,0.9,0.6c0.1,0.1,0,0.2-0.1,0.3c-0.1,0.1-0.3,0.1-0.4,0c-0.2-0.1-0.4-0.2-0.7-0.3
		c-0.2-0.1-0.5-0.2-1.1-0.2c-0.5,0-1.1,0.1-1.7,0.4c-0.6,0.3-1.2,0.6-1.7,1.1c-0.4,0.4-0.8,0.7-1,1.1c-0.2,0.3-0.1,0.6,0.1,0.7
		c0.4,0.1,0.9,0,1.6-0.2c0.7-0.3,1.3-0.6,2-0.9c0.7-0.4,1.5-0.8,2.1-1.2c0.7-0.4,1.3-0.8,1.8-1.1c0.4-0.3,0.7-0.3,0.9-0.1
		c0.2,0.2,0.2,0.4-0.1,0.6c-0.6,0.3-1,0.8-1.2,1.3c-0.2,0.5-0.1,0.8,0.2,0.9c0.3,0.1,0.8,0.1,1.5-0.2c0.7-0.3,1.4-0.6,2.2-0.9
		c0.7-0.3,1.5-0.7,2.1-1c0.7-0.3,1.1-0.6,1.3-0.7c0.3-0.1,0.5-0.1,0.6,0.2c0.2,0.2,0.2,0.4-0.1,0.5c-0.3,0.1-0.8,0.4-1.5,0.8
		c-0.7,0.3-1.4,0.7-2.2,1c-0.7,0.3-1.5,0.6-2.3,0.8c-0.7,0.2-1.4,0.3-1.8,0.2c-0.5-0.1-0.8-0.4-0.9-0.7c-0.1-0.4,0-0.7,0.2-1.1
		c-0.5,0.3-1.1,0.6-1.7,1c-0.7,0.3-1.3,0.6-2,0.9c-0.7,0.3-1.3,0.5-1.9,0.6C141.9,30.7,141.4,30.6,141.2,30.5z"/>
</mask>
<path class="st7" d="M110.8,29.7c-0.3-0.3-0.3-0.6-0.1-1.1c0.2-0.4,0.4-0.8,0.7-1.1c-0.4,0.2-0.7,0.4-0.9,0.4
	c-0.2,0-0.4,0.1-0.7,0.2c-0.2,0.1-0.4,0.1-0.5-0.1c-0.1-0.2-0.1-0.3,0.1-0.4c0.5-0.2,0.9-0.4,1.2-0.5c0.3-0.1,0.6-0.3,0.8-0.4
	c0.2-0.1,0.5-0.3,0.7-0.4c0.3-0.1,0.6-0.3,1.1-0.6c0.3-0.1,0.5-0.1,0.6,0.2c0.2,0.2,0.2,0.4-0.1,0.5c-0.5,0.3-0.8,0.6-1.1,0.8
	c-0.2,0.3-0.4,0.5-0.7,0.8c-0.4,0.5-0.5,0.8-0.3,0.9c0.1,0.1,0.4,0.2,0.7,0.2c0.4,0,0.7,0,1.2-0.1c0.4-0.1,0.8-0.2,1.1-0.3
	c0.9-0.2,1.8-0.5,2.9-0.9c1.1-0.4,2.1-0.8,3.2-1.3c0.1-0.1,0.2-0.1,0.3-0.1c0.1,0,0.2,0,0.3,0.1c0.1,0.2,0,0.4-0.3,0.6
	c-0.4,0.2-1.2,0.6-2.2,1c-1,0.4-2,0.8-3.1,1.1c-1.1,0.3-2.1,0.6-3.1,0.7C111.7,30.2,111.1,30.1,110.8,29.7z M113.9,24
	c-0.1-0.1-0.1-0.2-0.1-0.3c0-0.1,0.1-0.2,0.3-0.2c0.3-0.2,0.5-0.4,0.8-0.7c0.3-0.3,0.6-0.6,0.8-0.9c0.1-0.3,0.3-0.3,0.5-0.1
	c0.4,0.1,0.4,0.3,0.3,0.4c-0.6,0.9-1.2,1.4-1.8,1.8C114.3,24.3,114.1,24.3,113.9,24z"/>
<defs>
	<filter id="Adobe_OpacityMaskFilter_3_" filterUnits="userSpaceOnUse" x="119.1" y="12.5" width="21.8" height="18.4">
		<feColorMatrix  type="matrix" values="1 0 0 0 0  0 1 0 0 0  0 0 1 0 0  0 0 0 1 0"/>
	</filter>
</defs>
<mask maskUnits="userSpaceOnUse" x="119.1" y="12.5" width="21.8" height="18.4" id="path-1-outside-1_1089_2750_4_">
	<rect x="53.4" class="st8" width="104" height="38"/>
	<path d="M57.2,31.4c0.7-0.6,1.5-1.1,2.5-1.8c1.1-0.7,2.2-1.3,3.4-1.9c1.2-0.7,2.5-1.3,3.8-1.9c1.3-0.6,2.6-1.2,3.8-1.7
		c1.2-0.5,2.3-1,3.3-1.3c1-0.4,1.8-0.6,2.4-0.8h-0.9c-2.7-0.2-4.8-0.6-6.1-1.2C68,20,67.2,19.1,66.9,18c-0.2-0.8,0-1.8,0.7-2.8
		c0.7-1.1,1.7-2.2,3-3.3c1.3-1.1,2.9-2.3,4.7-3.4c1.8-1.1,3.7-2.2,5.7-3.2c2-1,4.1-1.8,6.1-2.5c2.1-0.7,4-1.3,5.8-1.6
		c1.8-0.3,3.5-0.3,5-0.1c1.5,0.2,2.7,0.8,3.5,1.7c0.7,0.7,0.7,1.6,0.3,2.8c-0.5,1.1-1.5,2.4-3,3.7c-1.5,1.3-3.6,2.5-6.2,3.7
		c-2.6,1.2-5.6,2.2-9.1,3c-0.1,0-0.2,0-0.2,0c0,0-0.1-0.1-0.1-0.3c-0.1-0.1-0.1-0.2,0-0.3c0.1-0.1,0.3-0.2,0.4-0.2
		c3.6-0.8,6.5-1.8,8.9-3c2.4-1.2,4.3-2.4,5.7-3.5c1.4-1.2,2.2-2.3,2.6-3.3c0.4-1,0.5-1.7,0.1-2.2c-0.6-0.7-1.6-1.2-2.9-1.4
		c-1.3-0.2-2.8-0.1-4.5,0.2c-1.7,0.3-3.5,0.7-5.5,1.4C85.9,4.1,84,4.8,82,5.7c-1.9,0.9-3.8,1.8-5.5,2.9c-1.8,1-3.3,2.1-4.6,3.2
		c-1.3,1.1-2.4,2.1-3.1,3.2c-0.7,1-1.1,2-0.9,2.9c0.1,0.5,0.4,0.9,0.8,1.3c0.4,0.4,1.1,0.8,2,1.1s2.1,0.5,3.6,0.7
		c1.5,0.1,3.2,0.2,5.3,0.1c0.3,0,0.4,0.1,0.5,0.3c0,0.2-0.1,0.3-0.5,0.3c-1.5,0.2-3.4,0.7-5.5,1.6c-2.2,0.8-4.3,1.8-6.5,2.8
		c-2.1,1-4.1,2.1-5.9,3.2c-1.8,1-3.1,1.9-3.9,2.4c-0.7,0.5-1.3,1-1.7,1.6c-0.4,0.5-0.7,0.9-0.8,1.4c-0.1,0.4,0,0.8,0.3,1.2
		c0.3,0.3,0.8,0.5,1.6,0.6c1.1,0.1,2.4,0,4.2-0.3c1.8-0.3,3.5-0.8,5.2-1.4c1.5-0.5,3.3-1.1,5.3-1.9c2.1-0.8,4.1-1.6,6.1-2.4
		c2-0.8,3.8-1.6,5.3-2.2c1.6-0.7,2.7-1.1,3.2-1.4c0.1,0,0.3,0,0.4-0.1c0.2,0,0.3,0,0.4,0.1c0,0.3-0.1,0.5-0.3,0.6
		c-0.6,0.3-1.7,0.9-3.4,1.6c-1.6,0.7-3.5,1.5-5.5,2.3c-2,0.8-4.1,1.6-6.1,2.4c-2.1,0.8-3.9,1.4-5.3,1.9c-2.8,1-5.1,1.5-7.1,1.7
		c-1.9,0.1-3.3,0-4.2-0.4c-0.9-0.4-1.3-1.1-1-2.1C54.7,33.7,55.6,32.6,57.2,31.4z"/>
	<path d="M87.5,28.3l0.4-0.6c0.1-0.2,0.2-0.4,0.3-0.5c0.1-0.2,0.2-0.4,0.3-0.6v-0.1l-0.1,0.1L88,26.8c-0.4,0.2-0.7,0.4-1.1,0.6
		c-0.4,0.2-0.7,0.3-0.9,0.4c-0.3,0.1-0.5,0-0.7-0.2c-0.2-0.1-0.1-0.3,0.3-0.4c0.3-0.1,0.6-0.2,0.9-0.4c0.4-0.1,0.7-0.3,0.9-0.5
		l0.7-0.4l0.4-0.3v-0.1c0.1-0.2,0.2-0.3,0.4-0.3c0.2,0,0.3,0.1,0.4,0.3l0.1,0.2c0.1,0.5,0,1-0.3,1.6c0.4-0.2,0.9-0.5,1.7-0.9
		c0.7-0.4,1.4-0.8,2.2-1.1c0.8-0.3,1.5-0.6,2.2-0.8c0.7-0.2,1.4-0.2,1.8,0c0.3,0.1,0.4,0.3,0.4,0.6s-0.1,0.5-0.2,0.8
		c-0.1,0.3-0.2,0.5-0.4,0.8c-0.2,0.3-0.3,0.5-0.3,0.6v0.1c0.4-0.2,0.9-0.5,1.5-0.8c0.6-0.3,1.3-0.6,1.9-0.8c0.7-0.3,1.3-0.4,1.9-0.6
		c0.7-0.1,1.2-0.1,1.7,0.1c0.4,0.1,0.5,0.3,0.4,0.7c0,0.1,0,0.1,0,0.2c0,0.1,0,0.1-0.1,0.2c-0.2,0.3-0.6,0.7-1,1.1
		c-0.4,0.4-0.8,0.8-1.1,1.1c-0.2,0.3-0.2,0.6,0,0.7c0.3,0.1,1,0.1,2.2-0.2c3.1-0.6,5.8-1.4,7.9-2.6c0.1-0.1,0.2-0.1,0.3-0.1
		c0.1,0,0.2,0.1,0.2,0.2c0.2,0.1,0.2,0.3,0,0.4c-1.3,0.7-2.7,1.2-4.2,1.7c-1.5,0.5-2.9,0.8-4.3,1.1c-1.2,0.2-2.1,0.2-2.6,0.1
		c-0.5-0.1-0.7-0.4-0.8-0.6c0-0.3,0.1-0.6,0.3-1c0.3-0.4,0.6-0.8,0.9-1.2c0.4-0.4,0.6-0.7,0.9-0.9c0.3-0.3,0.4-0.4,0.3-0.4
		c-0.3-0.1-0.8-0.1-1.5,0.1c-0.7,0.2-1.4,0.5-2.2,0.8c-0.8,0.3-1.6,0.7-2.4,1.2c-0.8,0.4-1.4,0.9-1.8,1.2c-0.1,0.1-0.3,0.2-0.4,0.4
		c-0.1,0.1-0.2,0.2-0.3,0.3h-0.1c-0.2,0-0.4-0.1-0.5-0.2c-0.1-0.1-0.1-0.3,0-0.4c0.6-0.6,1.1-1.2,1.5-1.8c0.4-0.6,0.7-1.1,0.9-1.4
		c0.2-0.4,0.3-0.7,0.3-0.9c0-0.2-0.2-0.3-0.5-0.2c-0.5,0.1-1.1,0.3-1.8,0.6c-0.7,0.3-1.5,0.7-2.3,1.1c-0.8,0.4-1.6,0.8-2.3,1.3
		c-0.7,0.4-1.4,0.9-1.8,1.2c-0.1,0.1-0.3,0.2-0.4,0.4c-0.1,0.1-0.2,0.2-0.3,0.3h-0.1c-0.2,0-0.4-0.1-0.5-0.2c-0.1-0.1-0.1-0.3,0-0.4
		L87.5,28.3z"/>
	<path d="M110.8,29.7c-0.3-0.3-0.3-0.6-0.1-1.1c0.2-0.4,0.4-0.8,0.7-1.1c-0.4,0.2-0.7,0.4-0.9,0.4c-0.2,0-0.4,0.1-0.7,0.2
		c-0.2,0.1-0.4,0.1-0.5-0.1c-0.1-0.2-0.1-0.3,0.1-0.4c0.5-0.2,0.9-0.4,1.2-0.5c0.3-0.1,0.6-0.3,0.8-0.4c0.2-0.1,0.5-0.3,0.7-0.4
		c0.3-0.1,0.6-0.3,1.1-0.6c0.3-0.1,0.5-0.1,0.6,0.2c0.2,0.2,0.2,0.4-0.1,0.5c-0.5,0.3-0.8,0.6-1.1,0.8c-0.2,0.3-0.4,0.5-0.7,0.8
		c-0.4,0.5-0.5,0.8-0.3,0.9c0.1,0.1,0.4,0.2,0.7,0.2c0.4,0,0.7,0,1.2-0.1c0.4-0.1,0.8-0.2,1.1-0.3c0.9-0.2,1.8-0.5,2.9-0.9
		c1.1-0.4,2.1-0.8,3.2-1.3c0.1-0.1,0.2-0.1,0.3-0.1c0.1,0,0.2,0,0.3,0.1c0.1,0.2,0,0.4-0.3,0.6c-0.4,0.2-1.2,0.6-2.2,1
		c-1,0.4-2,0.8-3.1,1.1c-1.1,0.3-2.1,0.6-3.1,0.7C111.7,30.2,111.1,30.1,110.8,29.7z M113.9,24c-0.1-0.1-0.1-0.2-0.1-0.3
		c0-0.1,0.1-0.2,0.3-0.2c0.3-0.2,0.5-0.4,0.8-0.7c0.3-0.3,0.6-0.6,0.8-0.9c0.1-0.3,0.3-0.3,0.5-0.1c0.4,0.1,0.4,0.3,0.3,0.4
		c-0.6,0.9-1.2,1.4-1.8,1.8C114.3,24.3,114.1,24.3,113.9,24z"/>
	<path d="M121.1,30.3c-0.4-0.1-0.8-0.2-1.1-0.4c-0.3-0.3-0.5-0.6-0.5-1c0-0.2,0-0.5,0.1-0.7c0.1-0.3,0.3-0.5,0.4-0.8l0.3-0.2v-0.1
		c-0.2-0.2-0.2-0.3,0.1-0.4l0.5-0.2l0.4-0.6c0.9-1,2.2-2.2,3.7-3.6c1.6-1.4,3.2-2.7,5-3.9c1.7-1.3,3.4-2.4,5.1-3.3
		c1.7-1,3.2-1.7,4.4-2h0.4c0.4,0,0.7,0.1,0.7,0.4c-0.1,0.4-0.5,0.9-1.1,1.6c-0.7,0.6-1.6,1.4-2.7,2.2c-0.6,0.4-1.4,1-2.6,1.8
		c-1.1,0.8-2.4,1.6-3.8,2.5c-1.3,0.9-2.7,1.8-4.1,2.6c-1.4,0.9-2.6,1.6-3.6,2.1l-1.2,0.6l-0.1,0.2c-0.3,0.3-0.5,0.7-0.7,1
		c-0.2,0.3-0.3,0.6-0.3,0.9c0,0.4,0.3,0.7,0.9,0.8c0.6,0.1,1.4,0.1,2.3,0.1c1-0.1,2-0.3,3.1-0.6c1.1-0.3,2.2-0.5,3.3-0.8
		c1.1-0.3,2-0.7,2.8-1c0.8-0.3,1.4-0.6,1.8-0.8c0.3-0.2,0.5-0.2,0.7,0c0.2,0.2,0.1,0.4-0.1,0.6c-0.5,0.4-1.4,0.8-2.6,1.3
		c-1.2,0.4-2.5,0.9-4,1.2c-1.4,0.4-2.8,0.6-4.2,0.8C123,30.5,121.9,30.5,121.1,30.3z M136,16.6c0.7-0.4,1.2-0.8,1.6-1.2
		c0.4-0.4,0.8-0.7,1.2-1.1l0.4-0.3l0.3-0.3l-0.4,0.1c-1.5,0.6-3.1,1.4-4.7,2.4c-1.6,1-3.1,2-4.6,3.1s-2.8,2.1-4,3.2
		c-1.2,1-2.2,1.9-2.9,2.6l0.9-0.6c0.8-0.4,1.8-1,3-1.8c1.2-0.8,2.4-1.6,3.6-2.3c1.2-0.8,2.4-1.5,3.4-2.2
		C134.8,17.4,135.5,16.9,136,16.6z"/>
	<path d="M133.5,29.7c-0.3-0.3-0.3-0.6-0.1-1.1c0.2-0.4,0.4-0.8,0.7-1.1c-0.4,0.2-0.7,0.4-0.9,0.4c-0.2,0-0.4,0.1-0.7,0.2
		c-0.2,0.1-0.4,0.1-0.5-0.1c-0.1-0.2-0.1-0.3,0.1-0.4c0.5-0.2,0.9-0.4,1.2-0.5c0.3-0.1,0.6-0.3,0.8-0.4c0.2-0.1,0.5-0.3,0.7-0.4
		c0.3-0.1,0.6-0.3,1.1-0.6c0.3-0.1,0.5-0.1,0.6,0.2c0.2,0.2,0.2,0.4-0.1,0.5c-0.5,0.3-0.8,0.6-1.1,0.8c-0.2,0.3-0.4,0.5-0.7,0.8
		c-0.4,0.5-0.5,0.8-0.3,0.9c0.1,0.1,0.4,0.2,0.7,0.2c0.4,0,0.7,0,1.2-0.1c0.4-0.1,0.8-0.2,1.1-0.3c0.9-0.2,1.8-0.5,2.9-0.9
		c1.1-0.4,2.1-0.8,3.2-1.3c0.1-0.1,0.2-0.1,0.3-0.1c0.1,0,0.2,0,0.3,0.1c0.1,0.2,0,0.4-0.3,0.6c-0.4,0.2-1.2,0.6-2.2,1
		c-1,0.4-2,0.8-3.1,1.1c-1.1,0.3-2.1,0.6-3.1,0.7C134.4,30.2,133.8,30.1,133.5,29.7z M136.7,24c-0.1-0.1-0.1-0.2-0.1-0.3
		c0-0.1,0.1-0.2,0.3-0.2c0.3-0.2,0.5-0.4,0.8-0.7c0.3-0.3,0.6-0.6,0.8-0.9c0.1-0.3,0.3-0.3,0.5-0.1c0.4,0.1,0.4,0.3,0.3,0.4
		c-0.6,0.9-1.2,1.4-1.8,1.8C137,24.3,136.8,24.3,136.7,24z"/>
	<path d="M141.2,30.5c-0.5-0.3-0.7-0.6-0.6-1.2c0.1-0.6,0.5-1.1,1-1.6c0.5-0.5,1.2-1,2-1.3c0.8-0.4,1.6-0.6,2.4-0.6
		c0.5,0,1,0.1,1.4,0.3c0.4,0.2,0.7,0.4,0.9,0.6c0.1,0.1,0,0.2-0.1,0.3c-0.1,0.1-0.3,0.1-0.4,0c-0.2-0.1-0.4-0.2-0.7-0.3
		c-0.2-0.1-0.5-0.2-1.1-0.2c-0.5,0-1.1,0.1-1.7,0.4c-0.6,0.3-1.2,0.6-1.7,1.1c-0.4,0.4-0.8,0.7-1,1.1c-0.2,0.3-0.1,0.6,0.1,0.7
		c0.4,0.1,0.9,0,1.6-0.2c0.7-0.3,1.3-0.6,2-0.9c0.7-0.4,1.5-0.8,2.1-1.2c0.7-0.4,1.3-0.8,1.8-1.1c0.4-0.3,0.7-0.3,0.9-0.1
		c0.2,0.2,0.2,0.4-0.1,0.6c-0.6,0.3-1,0.8-1.2,1.3c-0.2,0.5-0.1,0.8,0.2,0.9c0.3,0.1,0.8,0.1,1.5-0.2c0.7-0.3,1.4-0.6,2.2-0.9
		c0.7-0.3,1.5-0.7,2.1-1c0.7-0.3,1.1-0.6,1.3-0.7c0.3-0.1,0.5-0.1,0.6,0.2c0.2,0.2,0.2,0.4-0.1,0.5c-0.3,0.1-0.8,0.4-1.5,0.8
		c-0.7,0.3-1.4,0.7-2.2,1c-0.7,0.3-1.5,0.6-2.3,0.8c-0.7,0.2-1.4,0.3-1.8,0.2c-0.5-0.1-0.8-0.4-0.9-0.7c-0.1-0.4,0-0.7,0.2-1.1
		c-0.5,0.3-1.1,0.6-1.7,1c-0.7,0.3-1.3,0.6-2,0.9c-0.7,0.3-1.3,0.5-1.9,0.6C141.9,30.7,141.4,30.6,141.2,30.5z"/>
</mask>
<path class="st9" d="M121.1,30.3c-0.4-0.1-0.8-0.2-1.1-0.4c-0.3-0.3-0.5-0.6-0.5-1c0-0.2,0-0.5,0.1-0.7c0.1-0.3,0.3-0.5,0.4-0.8
	l0.3-0.2v-0.1c-0.2-0.2-0.2-0.3,0.1-0.4l0.5-0.2l0.4-0.6c0.9-1,2.2-2.2,3.7-3.6c1.6-1.4,3.2-2.7,5-3.9c1.7-1.3,3.4-2.4,5.1-3.3
	c1.7-1,3.2-1.7,4.4-2h0.4c0.4,0,0.7,0.1,0.7,0.4c-0.1,0.4-0.5,0.9-1.1,1.6c-0.7,0.6-1.6,1.4-2.7,2.2c-0.6,0.4-1.4,1-2.6,1.8
	c-1.1,0.8-2.4,1.6-3.8,2.5c-1.3,0.9-2.7,1.8-4.1,2.6c-1.4,0.9-2.6,1.6-3.6,2.1l-1.2,0.6l-0.1,0.2c-0.3,0.3-0.5,0.7-0.7,1
	c-0.2,0.3-0.3,0.6-0.3,0.9c0,0.4,0.3,0.7,0.9,0.8c0.6,0.1,1.4,0.1,2.3,0.1c1-0.1,2-0.3,3.1-0.6c1.1-0.3,2.2-0.5,3.3-0.8
	c1.1-0.3,2-0.7,2.8-1c0.8-0.3,1.4-0.6,1.8-0.8c0.3-0.2,0.5-0.2,0.7,0c0.2,0.2,0.1,0.4-0.1,0.6c-0.5,0.4-1.4,0.8-2.6,1.3
	c-1.2,0.4-2.5,0.9-4,1.2c-1.4,0.4-2.8,0.6-4.2,0.8C123,30.5,121.9,30.5,121.1,30.3z M136,16.6c0.7-0.4,1.2-0.8,1.6-1.2
	c0.4-0.4,0.8-0.7,1.2-1.1l0.4-0.3l0.3-0.3l-0.4,0.1c-1.5,0.6-3.1,1.4-4.7,2.4c-1.6,1-3.1,2-4.6,3.1s-2.8,2.1-4,3.2
	c-1.2,1-2.2,1.9-2.9,2.6l0.9-0.6c0.8-0.4,1.8-1,3-1.8c1.2-0.8,2.4-1.6,3.6-2.3c1.2-0.8,2.4-1.5,3.4-2.2
	C134.8,17.4,135.5,16.9,136,16.6z"/>
<defs>
	<filter id="Adobe_OpacityMaskFilter_4_" filterUnits="userSpaceOnUse" x="131.4" y="21.4" width="13.1" height="9.2">
		<feColorMatrix  type="matrix" values="1 0 0 0 0  0 1 0 0 0  0 0 1 0 0  0 0 0 1 0"/>
	</filter>
</defs>
<mask maskUnits="userSpaceOnUse" x="131.4" y="21.4" width="13.1" height="9.2" id="path-1-outside-1_1089_2750_5_">
	<rect x="53.4" class="st10" width="104" height="38"/>
	<path d="M57.2,31.4c0.7-0.6,1.5-1.1,2.5-1.8c1.1-0.7,2.2-1.3,3.4-1.9c1.2-0.7,2.5-1.3,3.8-1.9c1.3-0.6,2.6-1.2,3.8-1.7
		c1.2-0.5,2.3-1,3.3-1.3c1-0.4,1.8-0.6,2.4-0.8h-0.9c-2.7-0.2-4.8-0.6-6.1-1.2C68,20,67.2,19.1,66.9,18c-0.2-0.8,0-1.8,0.7-2.8
		c0.7-1.1,1.7-2.2,3-3.3c1.3-1.1,2.9-2.3,4.7-3.4c1.8-1.1,3.7-2.2,5.7-3.2c2-1,4.1-1.8,6.1-2.5c2.1-0.7,4-1.3,5.8-1.6
		c1.8-0.3,3.5-0.3,5-0.1c1.5,0.2,2.7,0.8,3.5,1.7c0.7,0.7,0.7,1.6,0.3,2.8c-0.5,1.1-1.5,2.4-3,3.7c-1.5,1.3-3.6,2.5-6.2,3.7
		c-2.6,1.2-5.6,2.2-9.1,3c-0.1,0-0.2,0-0.2,0c0,0-0.1-0.1-0.1-0.3c-0.1-0.1-0.1-0.2,0-0.3c0.1-0.1,0.3-0.2,0.4-0.2
		c3.6-0.8,6.5-1.8,8.9-3c2.4-1.2,4.3-2.4,5.7-3.5c1.4-1.2,2.2-2.3,2.6-3.3c0.4-1,0.5-1.7,0.1-2.2c-0.6-0.7-1.6-1.2-2.9-1.4
		c-1.3-0.2-2.8-0.1-4.5,0.2c-1.7,0.3-3.5,0.7-5.5,1.4C85.9,4.1,84,4.8,82,5.7c-1.9,0.9-3.8,1.8-5.5,2.9c-1.8,1-3.3,2.1-4.6,3.2
		c-1.3,1.1-2.4,2.1-3.1,3.2c-0.7,1-1.1,2-0.9,2.9c0.1,0.5,0.4,0.9,0.8,1.3c0.4,0.4,1.1,0.8,2,1.1s2.1,0.5,3.6,0.7
		c1.5,0.1,3.2,0.2,5.3,0.1c0.3,0,0.4,0.1,0.5,0.3c0,0.2-0.1,0.3-0.5,0.3c-1.5,0.2-3.4,0.7-5.5,1.6c-2.2,0.8-4.3,1.8-6.5,2.8
		c-2.1,1-4.1,2.1-5.9,3.2c-1.8,1-3.1,1.9-3.9,2.4c-0.7,0.5-1.3,1-1.7,1.6c-0.4,0.5-0.7,0.9-0.8,1.4c-0.1,0.4,0,0.8,0.3,1.2
		c0.3,0.3,0.8,0.5,1.6,0.6c1.1,0.1,2.4,0,4.2-0.3c1.8-0.3,3.5-0.8,5.2-1.4c1.5-0.5,3.3-1.1,5.3-1.9c2.1-0.8,4.1-1.6,6.1-2.4
		c2-0.8,3.8-1.6,5.3-2.2c1.6-0.7,2.7-1.1,3.2-1.4c0.1,0,0.3,0,0.4-0.1c0.2,0,0.3,0,0.4,0.1c0,0.3-0.1,0.5-0.3,0.6
		c-0.6,0.3-1.7,0.9-3.4,1.6c-1.6,0.7-3.5,1.5-5.5,2.3c-2,0.8-4.1,1.6-6.1,2.4c-2.1,0.8-3.9,1.4-5.3,1.9c-2.8,1-5.1,1.5-7.1,1.7
		c-1.9,0.1-3.3,0-4.2-0.4c-0.9-0.4-1.3-1.1-1-2.1C54.7,33.7,55.6,32.6,57.2,31.4z"/>
	<path d="M87.5,28.3l0.4-0.6c0.1-0.2,0.2-0.4,0.3-0.5c0.1-0.2,0.2-0.4,0.3-0.6v-0.1l-0.1,0.1L88,26.8c-0.4,0.2-0.7,0.4-1.1,0.6
		c-0.4,0.2-0.7,0.3-0.9,0.4c-0.3,0.1-0.5,0-0.7-0.2c-0.2-0.1-0.1-0.3,0.3-0.4c0.3-0.1,0.6-0.2,0.9-0.4c0.4-0.1,0.7-0.3,0.9-0.5
		l0.7-0.4l0.4-0.3v-0.1c0.1-0.2,0.2-0.3,0.4-0.3c0.2,0,0.3,0.1,0.4,0.3l0.1,0.2c0.1,0.5,0,1-0.3,1.6c0.4-0.2,0.9-0.5,1.7-0.9
		c0.7-0.4,1.4-0.8,2.2-1.1c0.8-0.3,1.5-0.6,2.2-0.8c0.7-0.2,1.4-0.2,1.8,0c0.3,0.1,0.4,0.3,0.4,0.6s-0.1,0.5-0.2,0.8
		c-0.1,0.3-0.2,0.5-0.4,0.8c-0.2,0.3-0.3,0.5-0.3,0.6v0.1c0.4-0.2,0.9-0.5,1.5-0.8c0.6-0.3,1.3-0.6,1.9-0.8c0.7-0.3,1.3-0.4,1.9-0.6
		c0.7-0.1,1.2-0.1,1.7,0.1c0.4,0.1,0.5,0.3,0.4,0.7c0,0.1,0,0.1,0,0.2c0,0.1,0,0.1-0.1,0.2c-0.2,0.3-0.6,0.7-1,1.1
		c-0.4,0.4-0.8,0.8-1.1,1.1c-0.2,0.3-0.2,0.6,0,0.7c0.3,0.1,1,0.1,2.2-0.2c3.1-0.6,5.8-1.4,7.9-2.6c0.1-0.1,0.2-0.1,0.3-0.1
		c0.1,0,0.2,0.1,0.2,0.2c0.2,0.1,0.2,0.3,0,0.4c-1.3,0.7-2.7,1.2-4.2,1.7c-1.5,0.5-2.9,0.8-4.3,1.1c-1.2,0.2-2.1,0.2-2.6,0.1
		c-0.5-0.1-0.7-0.4-0.8-0.6c0-0.3,0.1-0.6,0.3-1c0.3-0.4,0.6-0.8,0.9-1.2c0.4-0.4,0.6-0.7,0.9-0.9c0.3-0.3,0.4-0.4,0.3-0.4
		c-0.3-0.1-0.8-0.1-1.5,0.1c-0.7,0.2-1.4,0.5-2.2,0.8c-0.8,0.3-1.6,0.7-2.4,1.2c-0.8,0.4-1.4,0.9-1.8,1.2c-0.1,0.1-0.3,0.2-0.4,0.4
		c-0.1,0.1-0.2,0.2-0.3,0.3h-0.1c-0.2,0-0.4-0.1-0.5-0.2c-0.1-0.1-0.1-0.3,0-0.4c0.6-0.6,1.1-1.2,1.5-1.8c0.4-0.6,0.7-1.1,0.9-1.4
		c0.2-0.4,0.3-0.7,0.3-0.9c0-0.2-0.2-0.3-0.5-0.2c-0.5,0.1-1.1,0.3-1.8,0.6c-0.7,0.3-1.5,0.7-2.3,1.1c-0.8,0.4-1.6,0.8-2.3,1.3
		c-0.7,0.4-1.4,0.9-1.8,1.2c-0.1,0.1-0.3,0.2-0.4,0.4c-0.1,0.1-0.2,0.2-0.3,0.3h-0.1c-0.2,0-0.4-0.1-0.5-0.2c-0.1-0.1-0.1-0.3,0-0.4
		L87.5,28.3z"/>
	<path d="M110.8,29.7c-0.3-0.3-0.3-0.6-0.1-1.1c0.2-0.4,0.4-0.8,0.7-1.1c-0.4,0.2-0.7,0.4-0.9,0.4c-0.2,0-0.4,0.1-0.7,0.2
		c-0.2,0.1-0.4,0.1-0.5-0.1c-0.1-0.2-0.1-0.3,0.1-0.4c0.5-0.2,0.9-0.4,1.2-0.5c0.3-0.1,0.6-0.3,0.8-0.4c0.2-0.1,0.5-0.3,0.7-0.4
		c0.3-0.1,0.6-0.3,1.1-0.6c0.3-0.1,0.5-0.1,0.6,0.2c0.2,0.2,0.2,0.4-0.1,0.5c-0.5,0.3-0.8,0.6-1.1,0.8c-0.2,0.3-0.4,0.5-0.7,0.8
		c-0.4,0.5-0.5,0.8-0.3,0.9c0.1,0.1,0.4,0.2,0.7,0.2c0.4,0,0.7,0,1.2-0.1c0.4-0.1,0.8-0.2,1.1-0.3c0.9-0.2,1.8-0.5,2.9-0.9
		c1.1-0.4,2.1-0.8,3.2-1.3c0.1-0.1,0.2-0.1,0.3-0.1c0.1,0,0.2,0,0.3,0.1c0.1,0.2,0,0.4-0.3,0.6c-0.4,0.2-1.2,0.6-2.2,1
		c-1,0.4-2,0.8-3.1,1.1c-1.1,0.3-2.1,0.6-3.1,0.7C111.7,30.2,111.1,30.1,110.8,29.7z M113.9,24c-0.1-0.1-0.1-0.2-0.1-0.3
		c0-0.1,0.1-0.2,0.3-0.2c0.3-0.2,0.5-0.4,0.8-0.7c0.3-0.3,0.6-0.6,0.8-0.9c0.1-0.3,0.3-0.3,0.5-0.1c0.4,0.1,0.4,0.3,0.3,0.4
		c-0.6,0.9-1.2,1.4-1.8,1.8C114.3,24.3,114.1,24.3,113.9,24z"/>
	<path d="M121.1,30.3c-0.4-0.1-0.8-0.2-1.1-0.4c-0.3-0.3-0.5-0.6-0.5-1c0-0.2,0-0.5,0.1-0.7c0.1-0.3,0.3-0.5,0.4-0.8l0.3-0.2v-0.1
		c-0.2-0.2-0.2-0.3,0.1-0.4l0.5-0.2l0.4-0.6c0.9-1,2.2-2.2,3.7-3.6c1.6-1.4,3.2-2.7,5-3.9c1.7-1.3,3.4-2.4,5.1-3.3
		c1.7-1,3.2-1.7,4.4-2h0.4c0.4,0,0.7,0.1,0.7,0.4c-0.1,0.4-0.5,0.9-1.1,1.6c-0.7,0.6-1.6,1.4-2.7,2.2c-0.6,0.4-1.4,1-2.6,1.8
		c-1.1,0.8-2.4,1.6-3.8,2.5c-1.3,0.9-2.7,1.8-4.1,2.6c-1.4,0.9-2.6,1.6-3.6,2.1l-1.2,0.6l-0.1,0.2c-0.3,0.3-0.5,0.7-0.7,1
		c-0.2,0.3-0.3,0.6-0.3,0.9c0,0.4,0.3,0.7,0.9,0.8c0.6,0.1,1.4,0.1,2.3,0.1c1-0.1,2-0.3,3.1-0.6c1.1-0.3,2.2-0.5,3.3-0.8
		c1.1-0.3,2-0.7,2.8-1c0.8-0.3,1.4-0.6,1.8-0.8c0.3-0.2,0.5-0.2,0.7,0c0.2,0.2,0.1,0.4-0.1,0.6c-0.5,0.4-1.4,0.8-2.6,1.3
		c-1.2,0.4-2.5,0.9-4,1.2c-1.4,0.4-2.8,0.6-4.2,0.8C123,30.5,121.9,30.5,121.1,30.3z M136,16.6c0.7-0.4,1.2-0.8,1.6-1.2
		c0.4-0.4,0.8-0.7,1.2-1.1l0.4-0.3l0.3-0.3l-0.4,0.1c-1.5,0.6-3.1,1.4-4.7,2.4c-1.6,1-3.1,2-4.6,3.1s-2.8,2.1-4,3.2
		c-1.2,1-2.2,1.9-2.9,2.6l0.9-0.6c0.8-0.4,1.8-1,3-1.8c1.2-0.8,2.4-1.6,3.6-2.3c1.2-0.8,2.4-1.5,3.4-2.2
		C134.8,17.4,135.5,16.9,136,16.6z"/>
	<path d="M133.5,29.7c-0.3-0.3-0.3-0.6-0.1-1.1c0.2-0.4,0.4-0.8,0.7-1.1c-0.4,0.2-0.7,0.4-0.9,0.4c-0.2,0-0.4,0.1-0.7,0.2
		c-0.2,0.1-0.4,0.1-0.5-0.1c-0.1-0.2-0.1-0.3,0.1-0.4c0.5-0.2,0.9-0.4,1.2-0.5c0.3-0.1,0.6-0.3,0.8-0.4c0.2-0.1,0.5-0.3,0.7-0.4
		c0.3-0.1,0.6-0.3,1.1-0.6c0.3-0.1,0.5-0.1,0.6,0.2c0.2,0.2,0.2,0.4-0.1,0.5c-0.5,0.3-0.8,0.6-1.1,0.8c-0.2,0.3-0.4,0.5-0.7,0.8
		c-0.4,0.5-0.5,0.8-0.3,0.9c0.1,0.1,0.4,0.2,0.7,0.2c0.4,0,0.7,0,1.2-0.1c0.4-0.1,0.8-0.2,1.1-0.3c0.9-0.2,1.8-0.5,2.9-0.9
		c1.1-0.4,2.1-0.8,3.2-1.3c0.1-0.1,0.2-0.1,0.3-0.1c0.1,0,0.2,0,0.3,0.1c0.1,0.2,0,0.4-0.3,0.6c-0.4,0.2-1.2,0.6-2.2,1
		c-1,0.4-2,0.8-3.1,1.1c-1.1,0.3-2.1,0.6-3.1,0.7C134.4,30.2,133.8,30.1,133.5,29.7z M136.7,24c-0.1-0.1-0.1-0.2-0.1-0.3
		c0-0.1,0.1-0.2,0.3-0.2c0.3-0.2,0.5-0.4,0.8-0.7c0.3-0.3,0.6-0.6,0.8-0.9c0.1-0.3,0.3-0.3,0.5-0.1c0.4,0.1,0.4,0.3,0.3,0.4
		c-0.6,0.9-1.2,1.4-1.8,1.8C137,24.3,136.8,24.3,136.7,24z"/>
	<path d="M141.2,30.5c-0.5-0.3-0.7-0.6-0.6-1.2c0.1-0.6,0.5-1.1,1-1.6c0.5-0.5,1.2-1,2-1.3c0.8-0.4,1.6-0.6,2.4-0.6
		c0.5,0,1,0.1,1.4,0.3c0.4,0.2,0.7,0.4,0.9,0.6c0.1,0.1,0,0.2-0.1,0.3c-0.1,0.1-0.3,0.1-0.4,0c-0.2-0.1-0.4-0.2-0.7-0.3
		c-0.2-0.1-0.5-0.2-1.1-0.2c-0.5,0-1.1,0.1-1.7,0.4c-0.6,0.3-1.2,0.6-1.7,1.1c-0.4,0.4-0.8,0.7-1,1.1c-0.2,0.3-0.1,0.6,0.1,0.7
		c0.4,0.1,0.9,0,1.6-0.2c0.7-0.3,1.3-0.6,2-0.9c0.7-0.4,1.5-0.8,2.1-1.2c0.7-0.4,1.3-0.8,1.8-1.1c0.4-0.3,0.7-0.3,0.9-0.1
		c0.2,0.2,0.2,0.4-0.1,0.6c-0.6,0.3-1,0.8-1.2,1.3c-0.2,0.5-0.1,0.8,0.2,0.9c0.3,0.1,0.8,0.1,1.5-0.2c0.7-0.3,1.4-0.6,2.2-0.9
		c0.7-0.3,1.5-0.7,2.1-1c0.7-0.3,1.1-0.6,1.3-0.7c0.3-0.1,0.5-0.1,0.6,0.2c0.2,0.2,0.2,0.4-0.1,0.5c-0.3,0.1-0.8,0.4-1.5,0.8
		c-0.7,0.3-1.4,0.7-2.2,1c-0.7,0.3-1.5,0.6-2.3,0.8c-0.7,0.2-1.4,0.3-1.8,0.2c-0.5-0.1-0.8-0.4-0.9-0.7c-0.1-0.4,0-0.7,0.2-1.1
		c-0.5,0.3-1.1,0.6-1.7,1c-0.7,0.3-1.3,0.6-2,0.9c-0.7,0.3-1.3,0.5-1.9,0.6C141.9,30.7,141.4,30.6,141.2,30.5z"/>
</mask>
<path class="st11" d="M133.5,29.7c-0.3-0.3-0.3-0.6-0.1-1.1c0.2-0.4,0.4-0.8,0.7-1.1c-0.4,0.2-0.7,0.4-0.9,0.4
	c-0.2,0-0.4,0.1-0.7,0.2c-0.2,0.1-0.4,0.1-0.5-0.1c-0.1-0.2-0.1-0.3,0.1-0.4c0.5-0.2,0.9-0.4,1.2-0.5c0.3-0.1,0.6-0.3,0.8-0.4
	c0.2-0.1,0.5-0.3,0.7-0.4c0.3-0.1,0.6-0.3,1.1-0.6c0.3-0.1,0.5-0.1,0.6,0.2c0.2,0.2,0.2,0.4-0.1,0.5c-0.5,0.3-0.8,0.6-1.1,0.8
	c-0.2,0.3-0.4,0.5-0.7,0.8c-0.4,0.5-0.5,0.8-0.3,0.9c0.1,0.1,0.4,0.2,0.7,0.2c0.4,0,0.7,0,1.2-0.1c0.4-0.1,0.8-0.2,1.1-0.3
	c0.9-0.2,1.8-0.5,2.9-0.9c1.1-0.4,2.1-0.8,3.2-1.3c0.1-0.1,0.2-0.1,0.3-0.1c0.1,0,0.2,0,0.3,0.1c0.1,0.2,0,0.4-0.3,0.6
	c-0.4,0.2-1.2,0.6-2.2,1c-1,0.4-2,0.8-3.1,1.1c-1.1,0.3-2.1,0.6-3.1,0.7C134.4,30.2,133.8,30.1,133.5,29.7z M136.7,24
	c-0.1-0.1-0.1-0.2-0.1-0.3c0-0.1,0.1-0.2,0.3-0.2c0.3-0.2,0.5-0.4,0.8-0.7c0.3-0.3,0.6-0.6,0.8-0.9c0.1-0.3,0.3-0.3,0.5-0.1
	c0.4,0.1,0.4,0.3,0.3,0.4c-0.6,0.9-1.2,1.4-1.8,1.8C137,24.3,136.8,24.3,136.7,24z"/>
<defs>
	<filter id="Adobe_OpacityMaskFilter_5_" filterUnits="userSpaceOnUse" x="140.1" y="25.4" width="17.1" height="5.6">
		<feColorMatrix  type="matrix" values="1 0 0 0 0  0 1 0 0 0  0 0 1 0 0  0 0 0 1 0"/>
	</filter>
</defs>
<mask maskUnits="userSpaceOnUse" x="140.1" y="25.4" width="17.1" height="5.6" id="path-1-outside-1_1089_2750_6_">
	<rect x="53.4" class="st12" width="104" height="38"/>
	<path d="M57.2,31.4c0.7-0.6,1.5-1.1,2.5-1.8c1.1-0.7,2.2-1.3,3.4-1.9c1.2-0.7,2.5-1.3,3.8-1.9c1.3-0.6,2.6-1.2,3.8-1.7
		c1.2-0.5,2.3-1,3.3-1.3c1-0.4,1.8-0.6,2.4-0.8h-0.9c-2.7-0.2-4.8-0.6-6.1-1.2C68,20,67.2,19.1,66.9,18c-0.2-0.8,0-1.8,0.7-2.8
		c0.7-1.1,1.7-2.2,3-3.3c1.3-1.1,2.9-2.3,4.7-3.4c1.8-1.1,3.7-2.2,5.7-3.2c2-1,4.1-1.8,6.1-2.5c2.1-0.7,4-1.3,5.8-1.6
		c1.8-0.3,3.5-0.3,5-0.1c1.5,0.2,2.7,0.8,3.5,1.7c0.7,0.7,0.7,1.6,0.3,2.8c-0.5,1.1-1.5,2.4-3,3.7c-1.5,1.3-3.6,2.5-6.2,3.7
		c-2.6,1.2-5.6,2.2-9.1,3c-0.1,0-0.2,0-0.2,0c0,0-0.1-0.1-0.1-0.3c-0.1-0.1-0.1-0.2,0-0.3c0.1-0.1,0.3-0.2,0.4-0.2
		c3.6-0.8,6.5-1.8,8.9-3c2.4-1.2,4.3-2.4,5.7-3.5c1.4-1.2,2.2-2.3,2.6-3.3c0.4-1,0.5-1.7,0.1-2.2c-0.6-0.7-1.6-1.2-2.9-1.4
		c-1.3-0.2-2.8-0.1-4.5,0.2c-1.7,0.3-3.5,0.7-5.5,1.4C85.9,4.1,84,4.8,82,5.7c-1.9,0.9-3.8,1.8-5.5,2.9c-1.8,1-3.3,2.1-4.6,3.2
		c-1.3,1.1-2.4,2.1-3.1,3.2c-0.7,1-1.1,2-0.9,2.9c0.1,0.5,0.4,0.9,0.8,1.3c0.4,0.4,1.1,0.8,2,1.1s2.1,0.5,3.6,0.7
		c1.5,0.1,3.2,0.2,5.3,0.1c0.3,0,0.4,0.1,0.5,0.3c0,0.2-0.1,0.3-0.5,0.3c-1.5,0.2-3.4,0.7-5.5,1.6c-2.2,0.8-4.3,1.8-6.5,2.8
		c-2.1,1-4.1,2.1-5.9,3.2c-1.8,1-3.1,1.9-3.9,2.4c-0.7,0.5-1.3,1-1.7,1.6c-0.4,0.5-0.7,0.9-0.8,1.4c-0.1,0.4,0,0.8,0.3,1.2
		c0.3,0.3,0.8,0.5,1.6,0.6c1.1,0.1,2.4,0,4.2-0.3c1.8-0.3,3.5-0.8,5.2-1.4c1.5-0.5,3.3-1.1,5.3-1.9c2.1-0.8,4.1-1.6,6.1-2.4
		c2-0.8,3.8-1.6,5.3-2.2c1.6-0.7,2.7-1.1,3.2-1.4c0.1,0,0.3,0,0.4-0.1c0.2,0,0.3,0,0.4,0.1c0,0.3-0.1,0.5-0.3,0.6
		c-0.6,0.3-1.7,0.9-3.4,1.6c-1.6,0.7-3.5,1.5-5.5,2.3c-2,0.8-4.1,1.6-6.1,2.4c-2.1,0.8-3.9,1.4-5.3,1.9c-2.8,1-5.1,1.5-7.1,1.7
		c-1.9,0.1-3.3,0-4.2-0.4c-0.9-0.4-1.3-1.1-1-2.1C54.7,33.7,55.6,32.6,57.2,31.4z"/>
	<path d="M87.5,28.3l0.4-0.6c0.1-0.2,0.2-0.4,0.3-0.5c0.1-0.2,0.2-0.4,0.3-0.6v-0.1l-0.1,0.1L88,26.8c-0.4,0.2-0.7,0.4-1.1,0.6
		c-0.4,0.2-0.7,0.3-0.9,0.4c-0.3,0.1-0.5,0-0.7-0.2c-0.2-0.1-0.1-0.3,0.3-0.4c0.3-0.1,0.6-0.2,0.9-0.4c0.4-0.1,0.7-0.3,0.9-0.5
		l0.7-0.4l0.4-0.3v-0.1c0.1-0.2,0.2-0.3,0.4-0.3c0.2,0,0.3,0.1,0.4,0.3l0.1,0.2c0.1,0.5,0,1-0.3,1.6c0.4-0.2,0.9-0.5,1.7-0.9
		c0.7-0.4,1.4-0.8,2.2-1.1c0.8-0.3,1.5-0.6,2.2-0.8c0.7-0.2,1.4-0.2,1.8,0c0.3,0.1,0.4,0.3,0.4,0.6s-0.1,0.5-0.2,0.8
		c-0.1,0.3-0.2,0.5-0.4,0.8c-0.2,0.3-0.3,0.5-0.3,0.6v0.1c0.4-0.2,0.9-0.5,1.5-0.8c0.6-0.3,1.3-0.6,1.9-0.8c0.7-0.3,1.3-0.4,1.9-0.6
		c0.7-0.1,1.2-0.1,1.7,0.1c0.4,0.1,0.5,0.3,0.4,0.7c0,0.1,0,0.1,0,0.2c0,0.1,0,0.1-0.1,0.2c-0.2,0.3-0.6,0.7-1,1.1
		c-0.4,0.4-0.8,0.8-1.1,1.1c-0.2,0.3-0.2,0.6,0,0.7c0.3,0.1,1,0.1,2.2-0.2c3.1-0.6,5.8-1.4,7.9-2.6c0.1-0.1,0.2-0.1,0.3-0.1
		c0.1,0,0.2,0.1,0.2,0.2c0.2,0.1,0.2,0.3,0,0.4c-1.3,0.7-2.7,1.2-4.2,1.7c-1.5,0.5-2.9,0.8-4.3,1.1c-1.2,0.2-2.1,0.2-2.6,0.1
		c-0.5-0.1-0.7-0.4-0.8-0.6c0-0.3,0.1-0.6,0.3-1c0.3-0.4,0.6-0.8,0.9-1.2c0.4-0.4,0.6-0.7,0.9-0.9c0.3-0.3,0.4-0.4,0.3-0.4
		c-0.3-0.1-0.8-0.1-1.5,0.1c-0.7,0.2-1.4,0.5-2.2,0.8c-0.8,0.3-1.6,0.7-2.4,1.2c-0.8,0.4-1.4,0.9-1.8,1.2c-0.1,0.1-0.3,0.2-0.4,0.4
		c-0.1,0.1-0.2,0.2-0.3,0.3h-0.1c-0.2,0-0.4-0.1-0.5-0.2c-0.1-0.1-0.1-0.3,0-0.4c0.6-0.6,1.1-1.2,1.5-1.8c0.4-0.6,0.7-1.1,0.9-1.4
		c0.2-0.4,0.3-0.7,0.3-0.9c0-0.2-0.2-0.3-0.5-0.2c-0.5,0.1-1.1,0.3-1.8,0.6c-0.7,0.3-1.5,0.7-2.3,1.1c-0.8,0.4-1.6,0.8-2.3,1.3
		c-0.7,0.4-1.4,0.9-1.8,1.2c-0.1,0.1-0.3,0.2-0.4,0.4c-0.1,0.1-0.2,0.2-0.3,0.3h-0.1c-0.2,0-0.4-0.1-0.5-0.2c-0.1-0.1-0.1-0.3,0-0.4
		L87.5,28.3z"/>
	<path d="M110.8,29.7c-0.3-0.3-0.3-0.6-0.1-1.1c0.2-0.4,0.4-0.8,0.7-1.1c-0.4,0.2-0.7,0.4-0.9,0.4c-0.2,0-0.4,0.1-0.7,0.2
		c-0.2,0.1-0.4,0.1-0.5-0.1c-0.1-0.2-0.1-0.3,0.1-0.4c0.5-0.2,0.9-0.4,1.2-0.5c0.3-0.1,0.6-0.3,0.8-0.4c0.2-0.1,0.5-0.3,0.7-0.4
		c0.3-0.1,0.6-0.3,1.1-0.6c0.3-0.1,0.5-0.1,0.6,0.2c0.2,0.2,0.2,0.4-0.1,0.5c-0.5,0.3-0.8,0.6-1.1,0.8c-0.2,0.3-0.4,0.5-0.7,0.8
		c-0.4,0.5-0.5,0.8-0.3,0.9c0.1,0.1,0.4,0.2,0.7,0.2c0.4,0,0.7,0,1.2-0.1c0.4-0.1,0.8-0.2,1.1-0.3c0.9-0.2,1.8-0.5,2.9-0.9
		c1.1-0.4,2.1-0.8,3.2-1.3c0.1-0.1,0.2-0.1,0.3-0.1c0.1,0,0.2,0,0.3,0.1c0.1,0.2,0,0.4-0.3,0.6c-0.4,0.2-1.2,0.6-2.2,1
		c-1,0.4-2,0.8-3.1,1.1c-1.1,0.3-2.1,0.6-3.1,0.7C111.7,30.2,111.1,30.1,110.8,29.7z M113.9,24c-0.1-0.1-0.1-0.2-0.1-0.3
		c0-0.1,0.1-0.2,0.3-0.2c0.3-0.2,0.5-0.4,0.8-0.7c0.3-0.3,0.6-0.6,0.8-0.9c0.1-0.3,0.3-0.3,0.5-0.1c0.4,0.1,0.4,0.3,0.3,0.4
		c-0.6,0.9-1.2,1.4-1.8,1.8C114.3,24.3,114.1,24.3,113.9,24z"/>
	<path d="M121.1,30.3c-0.4-0.1-0.8-0.2-1.1-0.4c-0.3-0.3-0.5-0.6-0.5-1c0-0.2,0-0.5,0.1-0.7c0.1-0.3,0.3-0.5,0.4-0.8l0.3-0.2v-0.1
		c-0.2-0.2-0.2-0.3,0.1-0.4l0.5-0.2l0.4-0.6c0.9-1,2.2-2.2,3.7-3.6c1.6-1.4,3.2-2.7,5-3.9c1.7-1.3,3.4-2.4,5.1-3.3
		c1.7-1,3.2-1.7,4.4-2h0.4c0.4,0,0.7,0.1,0.7,0.4c-0.1,0.4-0.5,0.9-1.1,1.6c-0.7,0.6-1.6,1.4-2.7,2.2c-0.6,0.4-1.4,1-2.6,1.8
		c-1.1,0.8-2.4,1.6-3.8,2.5c-1.3,0.9-2.7,1.8-4.1,2.6c-1.4,0.9-2.6,1.6-3.6,2.1l-1.2,0.6l-0.1,0.2c-0.3,0.3-0.5,0.7-0.7,1
		c-0.2,0.3-0.3,0.6-0.3,0.9c0,0.4,0.3,0.7,0.9,0.8c0.6,0.1,1.4,0.1,2.3,0.1c1-0.1,2-0.3,3.1-0.6c1.1-0.3,2.2-0.5,3.3-0.8
		c1.1-0.3,2-0.7,2.8-1c0.8-0.3,1.4-0.6,1.8-0.8c0.3-0.2,0.5-0.2,0.7,0c0.2,0.2,0.1,0.4-0.1,0.6c-0.5,0.4-1.4,0.8-2.6,1.3
		c-1.2,0.4-2.5,0.9-4,1.2c-1.4,0.4-2.8,0.6-4.2,0.8C123,30.5,121.9,30.5,121.1,30.3z M136,16.6c0.7-0.4,1.2-0.8,1.6-1.2
		c0.4-0.4,0.8-0.7,1.2-1.1l0.4-0.3l0.3-0.3l-0.4,0.1c-1.5,0.6-3.1,1.4-4.7,2.4c-1.6,1-3.1,2-4.6,3.1s-2.8,2.1-4,3.2
		c-1.2,1-2.2,1.9-2.9,2.6l0.9-0.6c0.8-0.4,1.8-1,3-1.8c1.2-0.8,2.4-1.6,3.6-2.3c1.2-0.8,2.4-1.5,3.4-2.2
		C134.8,17.4,135.5,16.9,136,16.6z"/>
	<path d="M133.5,29.7c-0.3-0.3-0.3-0.6-0.1-1.1c0.2-0.4,0.4-0.8,0.7-1.1c-0.4,0.2-0.7,0.4-0.9,0.4c-0.2,0-0.4,0.1-0.7,0.2
		c-0.2,0.1-0.4,0.1-0.5-0.1c-0.1-0.2-0.1-0.3,0.1-0.4c0.5-0.2,0.9-0.4,1.2-0.5c0.3-0.1,0.6-0.3,0.8-0.4c0.2-0.1,0.5-0.3,0.7-0.4
		c0.3-0.1,0.6-0.3,1.1-0.6c0.3-0.1,0.5-0.1,0.6,0.2c0.2,0.2,0.2,0.4-0.1,0.5c-0.5,0.3-0.8,0.6-1.1,0.8c-0.2,0.3-0.4,0.5-0.7,0.8
		c-0.4,0.5-0.5,0.8-0.3,0.9c0.1,0.1,0.4,0.2,0.7,0.2c0.4,0,0.7,0,1.2-0.1c0.4-0.1,0.8-0.2,1.1-0.3c0.9-0.2,1.8-0.5,2.9-0.9
		c1.1-0.4,2.1-0.8,3.2-1.3c0.1-0.1,0.2-0.1,0.3-0.1c0.1,0,0.2,0,0.3,0.1c0.1,0.2,0,0.4-0.3,0.6c-0.4,0.2-1.2,0.6-2.2,1
		c-1,0.4-2,0.8-3.1,1.1c-1.1,0.3-2.1,0.6-3.1,0.7C134.4,30.2,133.8,30.1,133.5,29.7z M136.7,24c-0.1-0.1-0.1-0.2-0.1-0.3
		c0-0.1,0.1-0.2,0.3-0.2c0.3-0.2,0.5-0.4,0.8-0.7c0.3-0.3,0.6-0.6,0.8-0.9c0.1-0.3,0.3-0.3,0.5-0.1c0.4,0.1,0.4,0.3,0.3,0.4
		c-0.6,0.9-1.2,1.4-1.8,1.8C137,24.3,136.8,24.3,136.7,24z"/>
	<path d="M141.2,30.5c-0.5-0.3-0.7-0.6-0.6-1.2c0.1-0.6,0.5-1.1,1-1.6c0.5-0.5,1.2-1,2-1.3c0.8-0.4,1.6-0.6,2.4-0.6
		c0.5,0,1,0.1,1.4,0.3c0.4,0.2,0.7,0.4,0.9,0.6c0.1,0.1,0,0.2-0.1,0.3c-0.1,0.1-0.3,0.1-0.4,0c-0.2-0.1-0.4-0.2-0.7-0.3
		c-0.2-0.1-0.5-0.2-1.1-0.2c-0.5,0-1.1,0.1-1.7,0.4c-0.6,0.3-1.2,0.6-1.7,1.1c-0.4,0.4-0.8,0.7-1,1.1c-0.2,0.3-0.1,0.6,0.1,0.7
		c0.4,0.1,0.9,0,1.6-0.2c0.7-0.3,1.3-0.6,2-0.9c0.7-0.4,1.5-0.8,2.1-1.2c0.7-0.4,1.3-0.8,1.8-1.1c0.4-0.3,0.7-0.3,0.9-0.1
		c0.2,0.2,0.2,0.4-0.1,0.6c-0.6,0.3-1,0.8-1.2,1.3c-0.2,0.5-0.1,0.8,0.2,0.9c0.3,0.1,0.8,0.1,1.5-0.2c0.7-0.3,1.4-0.6,2.2-0.9
		c0.7-0.3,1.5-0.7,2.1-1c0.7-0.3,1.1-0.6,1.3-0.7c0.3-0.1,0.5-0.1,0.6,0.2c0.2,0.2,0.2,0.4-0.1,0.5c-0.3,0.1-0.8,0.4-1.5,0.8
		c-0.7,0.3-1.4,0.7-2.2,1c-0.7,0.3-1.5,0.6-2.3,0.8c-0.7,0.2-1.4,0.3-1.8,0.2c-0.5-0.1-0.8-0.4-0.9-0.7c-0.1-0.4,0-0.7,0.2-1.1
		c-0.5,0.3-1.1,0.6-1.7,1c-0.7,0.3-1.3,0.6-2,0.9c-0.7,0.3-1.3,0.5-1.9,0.6C141.9,30.7,141.4,30.6,141.2,30.5z"/>
</mask>
<path class="st13" d="M141.2,30.5c-0.5-0.3-0.7-0.6-0.6-1.2c0.1-0.6,0.5-1.1,1-1.6c0.5-0.5,1.2-1,2-1.3c0.8-0.4,1.6-0.6,2.4-0.6
	c0.5,0,1,0.1,1.4,0.3c0.4,0.2,0.7,0.4,0.9,0.6c0.1,0.1,0,0.2-0.1,0.3c-0.1,0.1-0.3,0.1-0.4,0c-0.2-0.1-0.4-0.2-0.7-0.3
	c-0.2-0.1-0.5-0.2-1.1-0.2c-0.5,0-1.1,0.1-1.7,0.4c-0.6,0.3-1.2,0.6-1.7,1.1c-0.4,0.4-0.8,0.7-1,1.1c-0.2,0.3-0.1,0.6,0.1,0.7
	c0.4,0.1,0.9,0,1.6-0.2c0.7-0.3,1.3-0.6,2-0.9c0.7-0.4,1.5-0.8,2.1-1.2c0.7-0.4,1.3-0.8,1.8-1.1c0.4-0.3,0.7-0.3,0.9-0.1
	c0.2,0.2,0.2,0.4-0.1,0.6c-0.6,0.3-1,0.8-1.2,1.3c-0.2,0.5-0.1,0.8,0.2,0.9c0.3,0.1,0.8,0.1,1.5-0.2c0.7-0.3,1.4-0.6,2.2-0.9
	c0.7-0.3,1.5-0.7,2.1-1c0.7-0.3,1.1-0.6,1.3-0.7c0.3-0.1,0.5-0.1,0.6,0.2c0.2,0.2,0.2,0.4-0.1,0.5c-0.3,0.1-0.8,0.4-1.5,0.8
	c-0.7,0.3-1.4,0.7-2.2,1c-0.7,0.3-1.5,0.6-2.3,0.8c-0.7,0.2-1.4,0.3-1.8,0.2c-0.5-0.1-0.8-0.4-0.9-0.7c-0.1-0.4,0-0.7,0.2-1.1
	c-0.5,0.3-1.1,0.6-1.7,1c-0.7,0.3-1.3,0.6-2,0.9c-0.7,0.3-1.3,0.5-1.9,0.6C141.9,30.7,141.4,30.6,141.2,30.5z"/>
<path class="st14" d="M12.1,59.4c2.6,0.2,4.6,0.9,5.9,2.1c1.3,1.2,2,2.7,2,4.6c0,1.5-0.4,2.8-1.1,3.9c-0.7,1.1-1.8,2-3.3,2.6
	c-1.4,0.6-3.1,0.9-5,0.9H0v0c0.6-0.7,1-1.2,1.2-1.6c0.2-0.4,0.3-1,0.3-1.6V49.8c0-0.6-0.1-1.2-0.3-1.6c-0.2-0.4-0.6-1-1.2-1.7v0h10
	c3,0,5.2,0.6,6.8,1.7c1.5,1.1,2.3,2.6,2.3,4.6c0,1.8-0.6,3.3-1.9,4.4C16,58.3,14.3,59,12.1,59.4L12.1,59.4z M6.6,59.3H10
	c1.4,0,2.4-0.5,2.9-1.5c0.6-1,0.9-2.5,0.9-4.4c0-2.3-0.3-3.9-1-5c-0.6-1.1-1.8-1.6-3.4-1.6H6.6V59.3z M10.1,73.3
	c1.6,0,2.8-0.6,3.5-1.7c0.7-1.1,1-2.9,1-5.3c0-2.2-0.3-3.8-1-5c-0.7-1.1-1.8-1.7-3.4-1.7H6.6v13.6H10.1z"/>
<path class="st14" d="M49.5,73.7h-2.5c-1,0-1.7-0.1-2.2-0.2c-0.5-0.1-0.9-0.4-1.3-0.8c-0.4-0.4-0.9-1.2-1.5-2.2l-5.6-9.9H34v9.6
	c0,0.6,0.1,1.2,0.3,1.6c0.2,0.4,0.6,1,1.2,1.7v0h-8.1v0c0.6-0.7,1-1.2,1.2-1.6c0.2-0.4,0.3-1,0.3-1.6V49.8c0-0.6-0.1-1.2-0.3-1.6
	c-0.2-0.4-0.6-1-1.2-1.7v0h9.3c3.3,0,5.8,0.6,7.6,1.7c1.8,1.2,2.7,2.8,2.7,5c0,1.7-0.5,3.1-1.6,4.3c-1,1.1-2.5,2-4.3,2.5L49.5,73.7z
	 M36.7,60.4c1.7,0,3-0.5,3.7-1.5c0.7-1,1.1-2.6,1.1-4.9c0-1.8-0.2-3.3-0.5-4.3c-0.3-1-0.9-1.8-1.8-2.3c-0.8-0.5-2-0.7-3.4-0.7H34
	v13.6H36.7z"/>
<path class="st14" d="M72.4,73.6h-17v0c0.6-0.7,1-1.2,1.2-1.6c0.2-0.4,0.3-1,0.3-1.6V49.8c0-0.6-0.1-1.2-0.3-1.6
	c-0.2-0.4-0.6-1-1.2-1.7v0H72l0.2,3.2h-0.1c-1.7-0.8-3-1.4-3.9-1.8c-0.9-0.4-1.6-0.7-2.2-0.8c-0.5-0.1-1.1-0.2-1.6-0.2H62v12.7
	c1,0,2.1-0.1,3.2-0.2c1.1-0.1,3-0.4,5.5-0.7h0.1v2.1h-0.1c-2.5-0.4-4.4-0.6-5.5-0.7c-1.1-0.1-2.2-0.2-3.2-0.2v13.4h2.6
	c0.5,0,1-0.1,1.6-0.2c0.6-0.2,1.3-0.5,2.3-0.9c1-0.4,2.4-1.1,4.2-2h0.1L72.4,73.6z"/>
<path class="st14" d="M111.9,46.5L111.9,46.5c-0.9,1.4-1.5,2.4-1.8,3.1c-0.3,0.7-0.7,1.8-1,3.4l-4.4,20.6H100l-5.1-24.1l-4,24.1
	h-4.6l-5.1-22.5c-0.2-1.1-0.5-1.8-0.8-2.3c-0.2-0.5-0.7-1.3-1.4-2.3v0h8.2v0c-0.5,0.5-0.8,0.9-1,1.2c-0.2,0.3-0.3,0.7-0.3,1
	c0,0.2,0.1,0.8,0.3,1.8l0.1,0.5L90.6,71l4.1-24.5h4.5l5.2,25.1l4-18.6c0.2-1.1,0.4-2,0.4-2.6c0-0.6-0.2-1.2-0.7-1.8
	c-0.5-0.5-1.3-1.2-2.5-2.1v0H111.9z"/>
<path class="st14" d="M132.9,49.7c-1.5-0.9-2.7-1.6-3.6-2.1c-0.8-0.4-1.5-0.7-2-0.9c-0.5-0.1-1-0.2-1.6-0.2c-1.1,0-1.9,0.3-2.5,0.9
	c-0.6,0.6-0.9,1.4-0.9,2.4c0,0.8,0.2,1.7,0.7,2.5c0.5,0.8,1.1,1.7,1.9,2.5c0.8,0.8,1.9,1.9,3.3,3.1c1.4,1.3,2.6,2.4,3.3,3.2
	c0.8,0.8,1.4,1.7,1.9,2.7c0.5,1,0.8,2.1,0.8,3.3c0,1.3-0.4,2.4-1.1,3.4c-0.7,1-1.7,1.8-3,2.4c-1.3,0.6-2.8,0.9-4.6,0.9
	c-1.1,0-2.2-0.1-3.3-0.2c-1.1-0.1-2.1-0.3-2.9-0.5l-1.1-4.6h0.2c1.5,1.4,2.7,2.5,3.6,3.2c0.9,0.7,1.6,1.2,2.2,1.4
	c0.6,0.2,1.3,0.4,2,0.4c1.2,0,2.2-0.4,3-1.1c0.8-0.7,1.1-1.6,1.1-2.8c0-1.5-0.5-2.9-1.4-4.3c-1-1.4-2.4-2.9-4.5-4.8
	c-1.5-1.3-2.6-2.4-3.4-3.2c-0.8-0.8-1.4-1.6-1.9-2.5c-0.4-0.9-0.7-1.8-0.7-2.7c0-1.1,0.3-2.1,1-3c0.7-0.9,1.7-1.7,2.9-2.2
	c1.3-0.5,2.8-0.8,4.6-0.8c1,0,2,0,3,0.1c1.1,0.1,2,0.2,2.9,0.3L132.9,49.7L132.9,49.7z"/>
<path class="st14" d="M152.8,46.8v23.5c0,0.7,0.1,1.2,0.3,1.6c0.2,0.4,0.6,1,1.3,1.7v0h-8.1v0c0.6-0.7,1.1-1.2,1.3-1.7
	c0.2-0.4,0.3-0.9,0.3-1.6V46.8h-0.6c-0.7,0-1.6,0.2-2.6,0.6c-1.1,0.4-2.7,1.2-4.8,2.4h-0.1l0.3-3.4h20.6l0.3,3.4h-0.1
	c-2.2-1.2-3.8-2.1-4.9-2.5c-1-0.4-1.9-0.6-2.6-0.6H152.8z"/>
<path class="st14" d="M184.5,73.6h-17v0c0.6-0.7,1-1.2,1.2-1.6c0.2-0.4,0.3-1,0.3-1.6V49.8c0-0.6-0.1-1.2-0.3-1.6
	c-0.2-0.4-0.6-1-1.2-1.7v0h16.6l0.2,3.2h-0.1c-1.7-0.8-3-1.4-3.9-1.8c-0.9-0.4-1.6-0.7-2.2-0.8c-0.6-0.1-1.1-0.2-1.6-0.2H174v12.7
	c1,0,2.1-0.1,3.2-0.2c1.1-0.1,3-0.4,5.5-0.7h0.1v2.1h-0.1c-2.6-0.4-4.4-0.6-5.5-0.7c-1.1-0.1-2.2-0.2-3.2-0.2v13.4h2.6
	c0.5,0,1-0.1,1.6-0.2c0.6-0.2,1.3-0.5,2.3-0.9c1-0.4,2.4-1.1,4.2-2h0.1L184.5,73.6z"/>
<path class="st14" d="M214,73.7h-2.5c-1,0-1.7-0.1-2.2-0.2c-0.5-0.1-0.9-0.4-1.3-0.8c-0.4-0.4-0.9-1.2-1.5-2.2l-5.6-9.9h-2.4v9.6
	c0,0.6,0.1,1.2,0.3,1.6c0.2,0.4,0.6,1,1.2,1.7v0h-8.1v0c0.6-0.7,1-1.2,1.2-1.6c0.2-0.4,0.3-1,0.3-1.6V49.8c0-0.6-0.1-1.2-0.3-1.6
	c-0.2-0.4-0.6-1-1.2-1.7v0h9.3c3.3,0,5.8,0.6,7.6,1.7c1.8,1.2,2.7,2.8,2.7,5c0,1.7-0.5,3.1-1.6,4.3c-1.1,1.1-2.5,2-4.3,2.5L214,73.7
	z M201.2,60.4c1.7,0,3-0.5,3.7-1.5c0.8-1,1.1-2.6,1.1-4.9c0-1.8-0.2-3.3-0.5-4.3c-0.3-1-0.9-1.8-1.8-2.3c-0.8-0.5-2-0.7-3.4-0.7
	h-1.9v13.6H201.2z"/>
</svg>
